<?xml version="1.0" encoding="UTF-8" standalone="no"?>
<svg
   xmlns:dc="http://purl.org/dc/elements/1.1/"
   xmlns:cc="http://creativecommons.org/ns#"
   xmlns:rdf="http://www.w3.org/1999/02/22-rdf-syntax-ns#"
   xmlns:svg="http://www.w3.org/2000/svg"
   xmlns="http://www.w3.org/2000/svg"
   xmlns:sodipodi="http://sodipodi.sourceforge.net/DTD/sodipodi-0.dtd"
   xmlns:inkscape="http://www.inkscape.org/namespaces/inkscape"
   width="450mm"
   height="300mm"
   id="svg2"
   version="1.1"
   inkscape:version="0.91 r"
   sodipodi:docname="casing.svg">
  <metadata
     id="metadata1059">
    <rdf:RDF>
      <cc:Work
         rdf:about="">
        <dc:format>image/svg+xml</dc:format>
        <dc:type
           rdf:resource="http://purl.org/dc/dcmitype/StillImage" />
        <dc:title></dc:title>
      </cc:Work>
    </rdf:RDF>
  </metadata>
  <sodipodi:namedview
     pagecolor="#ffffff"
     bordercolor="#666666"
     borderopacity="1"
     objecttolerance="10"
     gridtolerance="10"
     guidetolerance="10"
     inkscape:pageopacity="0"
     inkscape:pageshadow="2"
     inkscape:window-width="1600"
     inkscape:window-height="848"
     id="namedview1057"
     showgrid="false"
     showguides="true"
     inkscape:guide-bbox="true"
     fit-margin-top="0"
     fit-margin-left="0"
     fit-margin-right="0"
     fit-margin-bottom="0"
     inkscape:zoom="0.65471756"
     inkscape:cx="475.68788"
     inkscape:cy="665.12182"
     inkscape:window-x="0"
     inkscape:window-y="27"
     inkscape:window-maximized="1"
     inkscape:current-layer="g23"
     units="mm"
     inkscape:snap-grids="false"
     inkscape:snap-bbox="true"
     inkscape:bbox-paths="true"
     inkscape:bbox-nodes="true"
     inkscape:object-paths="false"
     inkscape:object-nodes="true"
     inkscape:document-units="mm">
    <inkscape:grid
       type="xygrid"
       id="grid5373"
       empspacing="5"
       visible="true"
       enabled="true"
       snapvisiblegridlinesonly="true"
       units="mm"
       spacingx="1mm"
       spacingy="1mm"
       dotted="false"
       originx="-8.4164672mm"
       originy="-93.026784mm" />
  </sodipodi:namedview>
  <desc
     id="desc4">/home/ulrichk/Dropbox/FabLab/projects/arduino-case.dxf - scale = 1.000000</desc>
  <defs
     id="defs6">
    <marker
       id="DistanceX"
       orient="auto"
       refX="0"
       refY="0"
       style="overflow:visible">
      <path
         d="M 3,-3 -3,3 M 0,-5 0,5"
         style="stroke:#000000;stroke-width:0.5"
         id="path9"
         inkscape:connector-curvature="0" />
    </marker>
    <pattern
       height="8"
       id="Hatch"
       patternUnits="userSpaceOnUse"
       width="8"
       x="0"
       y="0">
      <path
         d="M8 4 l-4,4"
         linecap="square"
         stroke="#000000"
         stroke-width="0.25"
         id="path12" />
      <path
         d="M6 2 l-4,4"
         linecap="square"
         stroke="#000000"
         stroke-width="0.25"
         id="path14" />
      <path
         d="M4 0 l-4,4"
         linecap="square"
         stroke="#000000"
         stroke-width="0.25"
         id="path16" />
    </pattern>
    <symbol
       id="*Model_Space" />
    <symbol
       id="*Paper_Space" />
    <symbol
       id="*Paper_Space0" />
  </defs>
  <g
     inkscape:groupmode="layer"
     inkscape:label="0"
     id="g21"
     style="display:inline"
     sodipodi:insensitive="true"
     transform="translate(-29.822128,340.25247)" />
  <g
     inkscape:groupmode="layer"
     inkscape:label="Layer0"
     id="g23"
     style="display:inline"
     transform="translate(-29.822128,340.25247)">
    <path
       style="color:#000000;display:inline;overflow:visible;visibility:visible;opacity:1;fill:none;fill-opacity:1;fill-rule:nonzero;stroke:#000000;stroke-width:0.35433072;stroke-linecap:butt;stroke-linejoin:round;stroke-miterlimit:4;stroke-dasharray:none;stroke-dashoffset:0;stroke-opacity:1;marker:none;enable-background:accumulate"
       d="m 1170.0304,206.48674 a 63.408588,56.512917 0 0 0 -51.9454,24.15039 l 47.8438,0 0,10.33789 -34.8691,0 0,44.20313 34.8691,0 0,10.33789 -47.7148,0 a 63.408588,56.512917 0 0 0 51.8164,23.99609 63.408588,56.512917 0 0 0 63.4101,-56.51172 63.408588,56.512917 0 0 0 -63.4101,-56.51367 z"
       id="path12545"
       inkscape:connector-curvature="0" />
    <path
       id="path919"
       style="fill:none;stroke:#000000;stroke-width:0.35433072;stroke-linecap:round;stroke-miterlimit:4;stroke-dasharray:none"
       d="m 68.230687,149.95946 0,27.97506 m 0,-27.97506 -10.629921,0 m 10.629921,27.97506 -10.629921,0 m 209.055114,-27.97506 10.62992,0 m -10.62992,27.97506 0,-27.97506 m 0,27.97506 10.62992,0 m -53.1496,-56.67585 0,10.62992 m -113.38583,-10.62992 113.38583,0 m -166.535434,74.74671 0,-18.07086 m 219.685034,18.07086 0,-18.07086 m -166.53543,18.07086 0,10.62992 m 0,0 113.38583,0 m 0,-10.62992 0,10.62992 m 53.1496,-10.62992 -53.1496,0 m 53.1496,-46.04592 0,-18.07087 m 0,0 -53.1496,0 m -113.38583,0 0,-10.62992 m -53.149604,10.62992 53.149604,0 m -53.149604,18.07087 0,-18.07087 m 53.149604,64.11679 -53.149604,0"
       inkscape:connector-curvature="0" />
    <path
       id="path975"
       style="fill:none;stroke:#000000;stroke-width:0.35433072;stroke-linecap:round;stroke-miterlimit:4;stroke-dasharray:none"
       d="m 223.88351,110.6417 -113.38583,0 m 0,0 0,-10.62992 m -7.08661,-14.52756 46.06299,0 m -81.496062,-49.58924 0,17.71654 m 198.651522,-17.71654 0,17.71654 m 10.40359,28.68372 0,-28.68372 m -53.1496,46.40026 0,10.62992 m -74.40945,-67.67717 -46.06299,0 m 163.21845,39.33071 10.40359,0 M 67.977998,53.61152 l -10.629922,0 m 159.448814,-10.64699 35.43307,0 m -141.73228,-7.06955 0,-10.62992 m -42.519682,74.74672 42.519682,0 m 113.38583,-64.1168 0,-10.62992 m -7.08662,60.21916 0,-42.51969 m -113.38582,0 0,42.51969 m -35.433072,-3.18898 -10.629922,0 m 209.281444,-28.68372 10.40359,0 m -209.055112,46.40026 0,-17.71654 m 0,-46.40026 42.519682,0 m 141.73228,49.58924 -35.43307,0 m -67.32283,0 0,-42.51969 m 74.40945,-17.69947 -113.38583,0 m 156.13184,74.74672 0,-17.71654 m -209.281444,0 0,-28.68372 m 166.535434,46.40026 42.74601,0 m -42.74601,-64.1168 42.74601,0 m -14.39956,7.06955 0,42.51969"
       inkscape:connector-curvature="0" />
    <path
       id="path1015"
       style="fill:none;stroke:#000000;stroke-width:0.35433072;stroke-linecap:round;stroke-miterlimit:4;stroke-dasharray:none"
       d="m 212.41478,3.39447 0,10.62992 m -27.97506,-10.62992 27.97506,0 m -27.97506,0 0,10.62992 m -18.07087,0 0,-70.86614 m 74.74672,-129.33071 0,129.33071 m -10.62992,-129.33071 10.62992,0 m -10.62992,-60.23622 0,60.23622 m -64.1168,-60.23622 17.71654,0 m 0.35433,260.43307 -18.07087,0 m 64.1168,0 -18.07087,0 m 18.07087,-70.86614 0,70.86614 m 0,-70.86614 10.62992,0 m -10.62992,-189.56693 -17.71654,0 m 0,0 0,-10.62992 m 0,0 -28.68372,0 m 0,10.62992 0,-10.62992 m -17.71654,10.62992 0,60.23622 m 0,0 -10.62992,0 m 0,0 0,129.33071 m 10.62992,0 -10.62992,0"
       inkscape:connector-curvature="0" />
    <path
       id="path1055"
       style="fill:none;stroke:#000000;stroke-width:0.35433072;stroke-linecap:round;stroke-miterlimit:4;stroke-dasharray:none"
       d="m 112.91841,4.18412 0,10.62992 M 84.943349,4.18412 l 27.975061,0 m -27.975061,0 0,10.62992 m -18.070867,0 0,-70.86614 m 74.746708,-129.33071 0,129.33071 m -10.62992,-129.33071 10.62992,0 m -10.62992,-60.23622 0,60.23622 m -64.116788,-60.23622 17.716536,0 m 0.354331,260.43307 -18.070867,0 m 64.116788,0 -18.07086,0 m 18.07086,-70.86614 0,70.86614 m 0,-70.86614 10.62992,0 m -10.62992,-189.56693 -17.71653,0 m 0,0 0,-10.62992 m 0,0 -28.683722,0 m 0,10.62992 0,-10.62992 m -17.716536,10.62992 0,60.23622 m 0,0 -10.629921,0 m 0,0 0,129.33071 m 10.629921,0 -10.629921,0"
       inkscape:connector-curvature="0" />
    <ellipse
       style="fill:none;stroke:#000000;stroke-width:0.36072898;stroke-linecap:round;stroke-miterlimit:4;stroke-dasharray:none"
       id="path5069"
       transform="matrix(0.77954582,0.6263452,-0.80921585,0.58751145,0,0)"
       cx="741.9895"
       cy="-198.03435"
       rx="18.216627"
       ry="40.712894" />
    <path
       style="color:#000000;display:inline;overflow:visible;visibility:visible;fill:none;stroke:#000000;stroke-width:0.35433072;stroke-linecap:butt;stroke-linejoin:miter;stroke-miterlimit:4;stroke-dasharray:none;stroke-dashoffset:0;stroke-opacity:1;marker:none;enable-background:accumulate"
       d="m 246.60742,37.240234 c -8.69569,0.163123 -13.42255,5.894063 -15.08203,12.660157 -2.95018,12.02861 43,45.987916 43,98.410159 l 35.43359,0 0,12.375 -35.43359,0 0,129.35742 35.43359,0 0,12.37305 -35.43359,0 0,129.35937 35.43359,0 0,12.37305 -35.43359,0 0,129.35937 35.43359,0 0,12.37305 -35.43359,0 c 0,39.2711 -38.59872,44.92328 -40.1875,91.44531 -0.45551,13.338 19.30521,59.77682 54.73828,24.34375 68.57037,-68.57036 273.97318,-36.22148 309.40625,-89.37109 7.45145,-11.17717 15.14989,-32.01904 22.61133,-58.86719 l -38.32031,0 0,-10.33984 41.10742,0 C 650.72274,440.35873 673.62848,264.12733 669.34766,187.10156 663.74004,86.202443 421.31564,98.519906 274.52539,49.097656 262.53469,40.354998 253.37074,37.113361 246.60742,37.240234 Z"
       transform="translate(29.822128,-304.81929)"
       id="path4971"
       inkscape:connector-curvature="0" />
    <path
       d="m 577.07855,-147.8683 -112.67717,0 m 112.67717,9.9212 0,-9.9212 m -112.67717,9.9212 112.67717,0 m -112.67717,-9.9212 0,9.9212"
       style="display:inline;fill:none;stroke:#000000;stroke-width:0.35433072;stroke-linecap:round;stroke-miterlimit:4;stroke-dasharray:none"
       id="path4975"
       inkscape:connector-curvature="0" />
    <path
       d="m 589.27221,-86.292458 -0.37432,1.508343 m 1.47172,-2.913731 -1.0974,1.405388 m 2.84313,-2.612325 -1.74573,1.206937 m 4.0208,-2.132971 -2.27507,0.926034 m 4.92447,-1.508232 -2.6494,0.582198 m 5.49253,-0.78076 -2.84313,0.198562 m 5.68629,0 -2.84316,-0.198562 m 5.49253,0.78076 -2.64937,-0.582198 m 4.92446,1.508232 -2.27509,-0.926034 m 4.02081,2.132971 -1.74572,-1.206937 m 2.84314,2.612325 -1.09742,-1.405388 m 1.47172,2.913731 -0.3743,-1.508343 m 0.3743,180.215777 0,-178.707434 m -0.3743,180.215677 0.3743,-1.508243 m -1.47172,2.913708 1.09742,-1.405465 m -2.84314,2.612369 1.74572,-1.206904 m -4.02081,2.132983 2.27509,-0.926079 m -4.92446,1.508244 2.64937,-0.582165 m -5.49253,0.780726 2.84316,-0.198561 m -5.68629,0 2.84313,0.198561 m -5.49253,-0.780726 2.6494,0.582165 m -4.92447,-1.508244 2.27507,0.926079 m -4.0208,-2.132983 1.74573,1.206904 m -2.84313,-2.612369 1.0974,1.405465 m -1.47172,-2.913708 0.37432,1.508243 m -0.37432,-180.215677 0,178.707434"
       style="display:inline;fill:none;stroke:#000000;stroke-width:0.35433072;stroke-linecap:round;stroke-miterlimit:4;stroke-dasharray:none"
       id="path4977"
       inkscape:connector-curvature="0" />
    <path
       d="m 630.22816,51.61985 0,-128.62205 m -9.92126,128.62205 9.92126,0 m -9.92126,-128.62205 0,128.62205 m 9.92126,-128.62205 -9.92126,0"
       style="display:inline;fill:none;stroke:#000000;stroke-width:0.35433072;stroke-linecap:round;stroke-miterlimit:4;stroke-dasharray:none"
       id="path4979"
       inkscape:connector-curvature="0" />
    <path
       d="m 464.40138,122.48599 112.67717,0 m -112.67717,-9.92126 0,9.92126 m 112.67717,-9.92126 -112.67717,0 m 112.67717,9.92126 0,-9.92126"
       style="display:inline;fill:none;stroke:#000000;stroke-width:0.35433072;stroke-linecap:round;stroke-miterlimit:4;stroke-dasharray:none"
       id="path4981"
       inkscape:connector-curvature="0" />
    <path
       d="m 420.94671,-77.0022 -9.92126,0 m 9.92126,128.62205 0,-128.62205 m -9.92126,128.62205 9.92126,0 m -9.92126,-128.62205 0,128.62205"
       style="display:inline;fill:none;stroke:#000000;stroke-width:0.35433072;stroke-linecap:round;stroke-miterlimit:4;stroke-dasharray:none"
       id="path4985"
       inkscape:connector-curvature="0" />
    <ellipse
       ry="26.574802"
       rx="24.132029"
       cy="280.29834"
       cx="417.23532"
       id="path4995"
       style="display:inline;fill:none;stroke:#000000;stroke-width:0.35433072;stroke-linecap:round;stroke-miterlimit:4;stroke-dasharray:none" />
    <circle
       r="8.4207678"
       cy="432.02667"
       cx="194.63322"
       style="display:inline;fill:none;stroke:#000000;stroke-width:0.35433072;stroke-linecap:round;stroke-miterlimit:4;stroke-dasharray:none"
       id="path5080-8"
       transform="matrix(0.96592583,-0.25881905,0.25881905,0.96592583,0,0)" />
    <g
       id="g8433"
       transform="translate(721.07527,-21.698825)"
       style="fill:none;stroke:#000000;stroke-width:0.35433072;stroke-miterlimit:4;stroke-dasharray:none">
      <circle
         style="color:#000000;display:inline;overflow:visible;visibility:visible;opacity:1;fill:none;fill-opacity:1;fill-rule:nonzero;stroke:#000000;stroke-width:0.35433072;stroke-linecap:butt;stroke-linejoin:round;stroke-miterlimit:4;stroke-dasharray:none;stroke-dashoffset:0;stroke-opacity:1;marker:none;enable-background:accumulate"
         id="circle8435"
         cx="635.81"
         cy="-153.6338"
         r="4.8149605" />
      <circle
         r="4.8149605"
         cy="-153.6338"
         cx="405.76614"
         id="circle8437"
         style="color:#000000;display:inline;overflow:visible;visibility:visible;opacity:1;fill:none;fill-opacity:1;fill-rule:nonzero;stroke:#000000;stroke-width:0.35433072;stroke-linecap:butt;stroke-linejoin:round;stroke-miterlimit:4;stroke-dasharray:none;stroke-dashoffset:0;stroke-opacity:1;marker:none;enable-background:accumulate" />
      <circle
         style="color:#000000;display:inline;overflow:visible;visibility:visible;opacity:1;fill:none;fill-opacity:1;fill-rule:nonzero;stroke:#000000;stroke-width:0.35433072;stroke-linecap:butt;stroke-linejoin:round;stroke-miterlimit:4;stroke-dasharray:none;stroke-dashoffset:0;stroke-opacity:1;marker:none;enable-background:accumulate"
         id="circle8439"
         cx="405.76614"
         cy="128.1671"
         r="4.8149605" />
      <circle
         r="4.8149605"
         cy="128.1671"
         cx="635.81"
         id="circle8441"
         style="color:#000000;display:inline;overflow:visible;visibility:visible;opacity:1;fill:none;fill-opacity:1;fill-rule:nonzero;stroke:#000000;stroke-width:0.35433072;stroke-linecap:butt;stroke-linejoin:round;stroke-miterlimit:4;stroke-dasharray:none;stroke-dashoffset:0;stroke-opacity:1;marker:none;enable-background:accumulate" />
    </g>
    <path
       id="path855"
       style="fill:none;stroke:#000000;stroke-width:0.35433072;stroke-linecap:round;stroke-miterlimit:4;stroke-dasharray:none"
       d="m 1341.7589,-98.602561 0,128.62204 m 9.9213,-128.62204 -9.9213,0 m 9.9213,128.62204 0,-128.62204 m -9.9213,128.62204 9.9213,0" />
    <path
       id="path863"
       style="fill:none;stroke:#000000;stroke-width:0.35433072;stroke-linecap:round;stroke-miterlimit:4;stroke-dasharray:none"
       d="m 1185.8534,-169.4687 0,9.92125 m 112.6772,-9.92125 -112.6772,0 m 112.6772,9.92125 0,-9.92125 m -112.6772,9.92125 112.6772,0" />
    <path
       id="path871"
       style="fill:none;stroke:#000000;stroke-width:0.35433072;stroke-linecap:round;stroke-miterlimit:4;stroke-dasharray:none"
       d="m 1132.4775,30.019479 9.9212,0 m -9.9212,-128.62204 0,128.62204 m 9.9212,-128.62204 -9.9212,0 m 9.9212,128.62204 0,-128.62204" />
    <path
       id="path879"
       style="fill:none;stroke:#000000;stroke-width:0.35433072;stroke-linecap:round;stroke-miterlimit:4;stroke-dasharray:none"
       d="m 1298.5306,100.88563 0,-9.921261 m -112.6772,9.921261 112.6772,0 m -112.6772,-9.921261 0,9.921261 m 112.6772,-9.921261 -112.6772,0" />
    <path
       style="color:#000000;display:inline;overflow:visible;visibility:visible;fill:none;stroke:#000000;stroke-width:0.35433072;stroke-linecap:butt;stroke-linejoin:miter;stroke-miterlimit:4;stroke-dasharray:none;stroke-dashoffset:0;stroke-opacity:1;marker:none;enable-background:accumulate"
       d="m 1368.1957,153.08532 c -87.071,39.21801 -274.777,21.70287 -273.8941,-62.305041 l 3.0548,-290.674369 c 0.4822,-45.88502 324.6482,-49.30852 321.7262,63.61723 -1.344,51.941068 -10.4094,271.13054 -50.8869,289.36218 z"
       id="rect5964"
       inkscape:connector-curvature="0"
       sodipodi:nodetypes="sssss" />
    <g
       id="g8427"
       style="fill:none;stroke:#000000;stroke-width:0.35433072;stroke-miterlimit:4;stroke-dasharray:none">
      <circle
         r="4.8149605"
         cy="-153.6338"
         cx="635.81"
         id="path8419"
         style="color:#000000;display:inline;overflow:visible;visibility:visible;opacity:1;fill:none;fill-opacity:1;fill-rule:nonzero;stroke:#000000;stroke-width:0.35433072;stroke-linecap:butt;stroke-linejoin:round;stroke-miterlimit:4;stroke-dasharray:none;stroke-dashoffset:0;stroke-opacity:1;marker:none;enable-background:accumulate" />
      <circle
         style="color:#000000;display:inline;overflow:visible;visibility:visible;opacity:1;fill:none;fill-opacity:1;fill-rule:nonzero;stroke:#000000;stroke-width:0.35433072;stroke-linecap:butt;stroke-linejoin:round;stroke-miterlimit:4;stroke-dasharray:none;stroke-dashoffset:0;stroke-opacity:1;marker:none;enable-background:accumulate"
         id="circle8421"
         cx="405.76614"
         cy="-153.6338"
         r="4.8149605" />
      <circle
         r="4.8149605"
         cy="128.1671"
         cx="405.76614"
         id="circle8423"
         style="color:#000000;display:inline;overflow:visible;visibility:visible;opacity:1;fill:none;fill-opacity:1;fill-rule:nonzero;stroke:#000000;stroke-width:0.35433072;stroke-linecap:butt;stroke-linejoin:round;stroke-miterlimit:4;stroke-dasharray:none;stroke-dashoffset:0;stroke-opacity:1;marker:none;enable-background:accumulate" />
      <circle
         style="color:#000000;display:inline;overflow:visible;visibility:visible;opacity:1;fill:none;fill-opacity:1;fill-rule:nonzero;stroke:#000000;stroke-width:0.35433072;stroke-linecap:butt;stroke-linejoin:round;stroke-miterlimit:4;stroke-dasharray:none;stroke-dashoffset:0;stroke-opacity:1;marker:none;enable-background:accumulate"
         id="circle8425"
         cx="635.81"
         cy="128.1671"
         r="4.8149605" />
    </g>
    <g
       id="g5062"
       transform="translate(361.45088,-320.92431)"
       style="fill:none;stroke:#000000;stroke-width:0.35433072;stroke-miterlimit:4;stroke-dasharray:none">
      <path
         style="color:#000000;display:inline;overflow:visible;visibility:visible;fill:none;stroke:#000000;stroke-width:0.35433072;stroke-linecap:butt;stroke-linejoin:miter;stroke-miterlimit:4;stroke-dasharray:none;stroke-dashoffset:0;stroke-opacity:1;marker:none;enable-background:accumulate"
         d="m 671.15234,35.546875 c -8.80342,0.271153 -13.87568,6.349141 -15.53515,13.115234 -2.95018,12.02861 43,45.985963 43,98.408201 l 35.43359,0 0,12.375 -35.43359,0 0,129.35742 35.43359,0 0,12.375 -35.43359,0 0,129.35743 35.43359,0 0,12.375 -35.43359,0 0,129.35742 35.43359,0 0,12.375 -35.43359,0 c 0,39.2711 -111.90235,112.7073 -111.90235,130.42383 0,17.71653 88.38781,17.91103 106.29883,0 88.58268,-88.58267 304.38765,-56.25635 329.56053,-104.00586 9.6279,-18.26267 14.4696,-38.10408 15.8028,-57.62891 l -32.5196,0 0,-10.33984 32.9004,0 c 0.1784,-27.8164 -6.4441,-54.2847 -16.1836,-73.76368 -17.7165,-35.43306 -28.15842,-7.10897 -88.58397,-88.58203 -15.10639,-20.36827 -10.17665,-142.40845 -17.71484,-177.16601 -2.44002,-45.04261 124.01561,17.71575 124.01561,-53.15039 0,-70.866144 -315.356,-81.494517 -341.67381,-102.570315 -11.51404,-9.220662 -20.61774,-12.523397 -27.46485,-12.3125 z"
         transform="translate(-331.62875,16.10502)"
         id="path3170"
         inkscape:connector-curvature="0" />
      <ellipse
         ry="26.574802"
         rx="8.8582678"
         cy="246.25983"
         cx="451.77167"
         id="path5028"
         style="fill:none;stroke:#000000;stroke-width:0.35433072;stroke-linecap:round;stroke-miterlimit:4;stroke-dasharray:none" />
      <ellipse
         ry="26.574802"
         rx="8.8582678"
         cy="246.25983"
         cx="451.77167"
         id="path5028-6"
         style="display:inline;fill:none;stroke:#000000;stroke-width:0.35433072;stroke-linecap:round;stroke-miterlimit:4;stroke-dasharray:none"
         transform="translate(70.102454,-12.982699)" />
      <ellipse
         ry="26.574802"
         rx="8.8582678"
         cy="246.25983"
         cx="451.77167"
         id="path5028-8"
         style="display:inline;fill:none;stroke:#000000;stroke-width:0.35433072;stroke-linecap:round;stroke-miterlimit:4;stroke-dasharray:none"
         transform="translate(0.15171001,136.38646)" />
      <ellipse
         ry="26.574802"
         rx="8.8582678"
         cy="246.25983"
         cx="451.77167"
         id="path5028-2"
         style="display:inline;fill:none;stroke:#000000;stroke-width:0.35433072;stroke-linecap:round;stroke-miterlimit:4;stroke-dasharray:none"
         transform="translate(89.958344,118.05795)" />
    </g>
    <g
       transform="matrix(0,-0.95409771,1.0481107,0,0,0)"
       style="font-style:normal;font-variant:normal;font-weight:normal;font-stretch:normal;font-size:42.93439865px;line-height:125%;font-family:'Zekton Dots';-inkscape-font-specification:'Zekton Dots, Normal';text-align:start;letter-spacing:0px;word-spacing:0px;writing-mode:lr-tb;text-anchor:start;fill:#000000;fill-opacity:1;stroke:none;stroke-width:1px;stroke-linecap:butt;stroke-linejoin:miter;stroke-opacity:1"
       id="text12593">
      <path
         d="m -68.367919,1167.5354 q -0.08587,0 -0.214672,0 -0.128803,-0.043 -0.214672,-0.043 -0.04293,0 -0.08587,0.043 -0.04293,0 -0.08587,0 -0.171737,0 -0.429344,-0.1288 l -2.14672,0.1717 q -0.858688,0 -0.944556,-1.0733 l 0.04293,-0.5152 q 0,-0.086 -0.04293,-0.086 0,-0.043 0,-0.1288 0,-0.3435 0.257606,-0.5582 0.300541,-0.2146 0.729885,-0.2146 l 2.275523,-0.086 q 0.08587,0 0.214672,0.043 0.128803,0 0.214672,0 0.08587,-0.043 0.214672,-0.043 0.171738,-0.043 0.38641,-0.2147 l 1.717375,0.2147 q 0.257607,0 0.858688,0.6011 l 0.08587,0.4293 0.04293,0.6011 q 0,0.3435 -0.300541,0.6011 -0.300541,0.2147 -0.772819,0.2147 l -0.08587,0 -1.717376,0.1717 z m -0.04293,4.5081 q -0.08587,0 -0.214672,0 -0.128804,-0.043 -0.214672,-0.043 -0.08587,0.043 -0.214672,0.043 -0.171738,0 -0.214672,-0.043 -0.128804,0 -0.257607,0.043 -0.128803,0 -0.214672,0 -0.214672,0 -0.386409,0 -0.171738,-0.043 -0.343476,-0.043 -0.429344,0 -0.901622,0.1717 -0.38641,-0.1717 -0.772819,-0.4293 -0.343475,-0.3006 -0.343475,-0.6011 0,-0.043 0,-0.043 0.04293,-0.043 0.04293,-0.086 l 0.04293,-1.4598 q 0,-0.3435 0.257607,-0.6011 0.257606,-0.2576 0.601081,-0.2576 l 2.275524,0.086 q 0.08587,0 0.214672,0.043 0.128803,0 0.214672,0 0.08587,-0.043 0.171737,-0.043 0.128803,-0.043 0.128803,-0.1717 l 2.060851,0.2576 q 0.729885,0 0.858688,1.0304 l 0,1.1592 q 0,0.4723 -0.30054,0.7299 -0.257607,0.2147 -0.686951,0.2147 l -0.08587,0 -1.717375,0.043 z m -0.04293,4.5511 -0.429344,-0.043 q -0.08587,0.043 -0.214672,0.043 -0.128803,-0.043 -0.214672,0.043 l -2.275523,-0.1288 q -0.944557,0 -1.07336,-0.9446 l 0.171738,-1.5885 q 0,-0.4723 0.30054,-0.687 0.300541,-0.2576 0.686951,-0.3864 l 0.257606,0 q 0.429344,0 0.772819,0.086 0.38641,0.086 0.815754,0.086 0.08587,0 0.171738,0 0.128803,-0.043 0.214672,-0.043 0.08587,0 0.214672,0.043 0.128803,0 0.214672,0 0.04293,0 0.08587,0 0.04293,-0.043 0.08587,-0.043 0.08587,0 0.171738,0.086 l 1.932048,-0.2576 q 0.472278,0 0.68695,0.3434 0.257606,0.3435 0.257606,0.6441 l -0.04293,1.5885 q -0.128803,0.9875 -1.202163,1.2881 l -1.588573,-0.1288 z m 18.633529,-10.9913 q 0.214672,-0.1717 0.343475,-0.3864 0.171738,-0.2146 0.601082,-0.2146 0.772819,0 1.288032,0.4722 0.171737,-0.5581 0.772819,-0.5581 l 1.202163,0.043 q 0.214672,0 0.515213,0.1288 0.343475,0.1288 0.429344,0.3864 0.257606,-0.3864 0.987491,-0.644 l 0.901623,0.043 q 0.386409,0.086 0.729884,0.3434 0.343475,0.2147 0.343475,0.5153 0,0.043 -0.04293,0.043 0,0 0,0.043 0.171738,-0.4723 0.429344,-0.644 0.300541,-0.1717 0.729885,-0.2576 l 0.729885,0.086 q 0.558147,0 0.772819,0.3005 0.257606,0.3005 0.343475,0.687 l 0.04293,0.1717 q -0.214672,0.6869 -0.429344,0.9016 -0.214672,0.1718 -0.644016,0.5152 l -0.901622,0.043 q -0.815754,-0.2147 -0.944557,-0.7729 -0.08587,0.2577 -0.472278,0.4294 -0.38641,0.1717 -0.644016,0.1717 l -0.944557,0 q -0.772819,0 -0.944557,-0.644 -0.08587,0.3435 -0.386409,0.5152 -0.257607,0.1288 -0.472279,0.1288 l -1.245097,0.043 q -0.257607,-0.086 -0.515213,-0.086 -0.214672,-0.043 -0.38641,-0.3864 l -0.128803,0.1288 -0.815753,0.3435 -0.601082,-0.1288 q -0.08587,0.043 -0.257606,0.043 -0.38641,0 -0.644016,-0.3005 -0.257607,-0.3435 -0.257607,-0.687 0,-0.5581 0.515213,-0.8158 z m -5.839078,4.5082 q 0.601082,-0.4723 0.815754,-0.5582 0.257606,-0.1288 0.858687,-0.1288 0.04293,-0.1717 0.343476,-0.4293 0.30054,-0.2576 0.68695,-0.2576 l 0.04293,0 q 0.171738,-0.086 0.515213,-0.086 0.214672,0 0.429344,0.043 0.214672,0 0.343475,0 l 0.08587,0 0.858688,0.4294 q 0.08587,-0.2147 0.343475,-0.2576 0.257607,-0.086 0.472279,-0.2576 l 1.288032,0.086 q 0.68695,0.086 0.858688,0.644 0.257606,-0.3005 0.472278,-0.4722 0.257606,-0.2147 0.515213,-0.2576 l 1.245097,0.086 q 0.343476,0 0.601082,0.3006 0.300541,0.2576 0.343475,0.7728 l 0.04293,0.8587 q 0,0.6011 -0.429344,0.9445 -0.429344,0.3006 -0.901623,0.5582 l -0.944557,-0.1288 q -0.68695,0 -0.815753,-0.5152 -0.171738,0.2146 -0.429344,0.3864 -0.257606,0.1717 -0.558147,0.1717 l -1.330967,0 q -0.429344,0 -0.772819,-0.4293 -0.343475,0.4293 -0.815753,0.4293 l -0.128804,0 q -0.214672,0 -0.515212,0 -0.257607,-0.043 -0.515213,-0.043 l -0.257607,0 q -0.214672,-0.043 -0.429344,-0.086 -0.171737,-0.043 -0.429344,-0.2147 -0.128803,0.1288 -0.343475,0.1718 -0.214672,0.043 -0.429344,0.1288 l -0.386409,-0.043 q -0.601082,0 -0.944557,-0.3434 -0.300541,-0.3435 -0.300541,-0.7299 0,-0.2147 0.08587,-0.4294 0.128803,-0.2576 0.38641,-0.3434 l 0.04293,0 z m -5.882013,4.5081 q 0.214672,-0.1718 0.515213,-0.3435 0.300541,-0.2147 0.601082,-0.2147 l 0.171737,0 q 0.08587,-0.4293 0.429344,-0.6869 0.343475,-0.2576 0.772819,-0.4723 l 1.631508,0 q 0.171737,0.086 0.343475,0.1717 0.171737,0.086 0.386409,0.1718 0.128804,-0.1718 0.300541,-0.2147 0.171738,-0.043 0.472279,-0.086 l 1.416835,0 q 0.472278,0.043 0.815753,0.3435 0.300541,-0.3864 0.987491,-0.3864 0.257607,0 0.601082,0.086 0.343475,0.043 0.644016,0.043 l 0.08587,0 q 0.343475,0 0.558147,0.2576 0.257606,0.2147 0.257606,0.5582 l 0.04293,1.288 q 0,0.4723 -0.429344,0.8587 -0.38641,0.3434 -0.729885,0.5581 l -0.214672,0 q -0.214672,0 -0.343475,0 -0.128803,-0.043 -0.343475,-0.043 -0.214672,0 -0.343476,0.043 l -0.815753,-0.3435 -0.343475,0.2577 -1.932048,0.086 -0.729885,-0.2147 q -0.343475,0.1289 -0.68695,0.2147 -0.343476,0.086 -0.686951,0.086 -0.214672,0 -0.429344,0 -0.214672,-0.043 -0.429344,-0.043 l -0.214672,0 q -0.128803,0 -0.300541,-0.043 -0.171737,-0.043 -0.343475,-0.1717 -0.128803,0.1288 -0.300541,0.1717 -0.128803,0 -0.343475,0.043 l -0.558147,-0.1718 q -0.04293,0 -0.08587,0.043 -0.04293,0 -0.08587,0 -0.343476,0 -0.601082,-0.3006 -0.214672,-0.3005 -0.214672,-0.644 0,-0.5582 0.472278,-0.8587 l 0,-0.043 z m 3.821162,6.4831 q -0.343475,0 -0.644016,0.043 -0.257607,0 -0.515213,0 l -0.257606,0 q -0.214672,-0.086 -0.343476,-0.086 -0.128803,-0.043 -0.257606,-0.1288 -0.214672,0.086 -0.38641,0.1288 -0.128803,0 -0.343475,0.043 l -1.76031,0.086 q -0.171738,-0.043 -0.300541,-0.086 -0.08587,-0.043 -0.257606,-0.086 l -0.128803,0.043 -2.447261,0.086 -0.515213,-0.086 -0.257606,0.2576 q -0.38641,-0.2146 -0.987492,-0.2146 -0.30054,0 -0.601081,0.043 -0.257606,0 -0.558147,0 l -0.171738,0 -0.858688,-0.2147 -2.189654,0.2147 q -0.815754,0 -1.159229,-1.0734 l 0,-1.5885 q 0.08587,-0.4723 0.429344,-0.7729 0.343475,-0.3005 0.729885,-0.4722 l 2.189654,0.086 q 0.08587,0 0.214672,0.043 0.128803,0.043 0.214672,0.043 l 0.558147,-0.1717 1.760311,0.1717 q 0.257606,0 0.472278,0.1288 0.257606,0.086 0.343475,0.3864 0.429344,-0.2576 0.558147,-0.6869 l 1.84618,0.043 q 0.128803,0.043 0.257606,0.086 0.171738,0.043 0.257606,0.086 0.171738,-0.086 0.257607,-0.086 0.128803,0 0.214672,0.086 l 1.889113,-0.086 q 0.04293,0 0.04293,0 0.04293,-0.043 0.08587,-0.043 0.300541,0 0.558148,0.1718 0.343475,-0.1288 0.601081,-0.2147 0.300541,-0.086 0.686951,-0.086 0.472278,0 0.901622,0.043 0.472278,0.043 0.858688,0.3434 l 0.300541,-0.2146 0.558147,-0.086 q 0.601082,0 0.815754,0.3435 0.257606,0.3435 0.257606,0.7299 0,0.4722 -0.300541,0.7728 l -0.171737,0.1717 q -0.08587,0.086 -0.343476,0.2147 -0.214672,0.086 -0.515212,0.086 -0.08587,0 -0.128804,0 -0.04293,-0.043 -0.128803,-0.043 l -0.04293,0.1718 q 0,0.4293 -0.429344,0.7728 -0.38641,0.3005 -0.858688,0.6011 z m -7.642323,4.6369 2.017917,0.2147 0.558147,0.1717 0.558147,-0.2147 0.901622,0.1718 q 0.472279,0.2576 0.815754,0.4293 0.386409,0.1288 0.729885,0.4723 l 0.386409,0.7728 0.901623,0.2147 0.515212,0.4722 q 0.38641,0.3435 0.38641,0.8158 0,0.3435 -0.171738,0.6011 -0.171737,0.2576 -0.472278,0.3435 l 0.772819,0.043 0.729885,0.3435 q 0.171738,-0.2147 0.343475,-0.2576 0.171738,-0.043 0.38641,-0.086 l 0.429344,-0.1288 q 0.429344,0.4293 0.944557,0.8157 0.515212,0.3865 0.772819,0.6011 l 0.30054,0.4294 0.128804,0.644 0.68695,-0.086 0.858688,0.5152 q 0.300541,0.3006 0.300541,0.9017 0,0.4293 -0.257607,0.601 l 0.38641,0.086 q 0.601082,0 0.772819,0.5581 0.214672,-0.2146 0.472279,-0.2576 0.257606,-0.043 0.472278,-0.043 0.04293,0 0.343475,0.1288 0.343475,0.1288 0.729885,0.3864 0.38641,0.2576 0.729885,0.644 0.343475,0.3435 0.429344,0.8587 l 0.08587,0.7728 q 0.128804,-0.1717 0.343476,-0.3005 0.257606,-0.1288 0.472278,-0.1288 0.171738,0 0.38641,0.1288 l 0.04293,0 q 0.04293,0 0.128803,-0.086 0.429344,0.3435 0.429344,1.0734 0,0.3005 -0.04293,0.4723 l 0.04293,0.1288 q 0.08587,-0.043 0.257607,-0.043 0.343475,0 0.515212,0.3006 0.214672,0.3005 0.300541,0.6869 0,0.086 -0.04293,0.1288 0,0.043 -0.04293,0.2576 0.300541,-0.7298 0.901623,-0.7298 0.257606,0 0.601081,0.1288 0.343476,0.1288 0.686951,0.3864 0.343475,0.2576 0.601081,0.644 0.257607,0.3435 0.300541,0.7728 l -0.171738,1.5027 q 0.04293,0.043 0.04293,0.1717 0,0.2577 -0.257606,0.4723 -0.257607,0.2147 -0.686951,0.2147 l -1.159229,0 q -0.515212,0 -0.901622,-0.5152 -0.257606,0.6011 -1.07336,0.6869 l -1.202163,-0.1288 -0.686951,-0.5152 -0.515212,0.4723 -1.588573,0.086 -0.772819,-0.3006 -0.214672,-0.3864 -0.214672,-0.9016 q -0.343475,0.2147 -0.772819,0.2147 -0.343476,0 -0.901623,-0.4294 -0.558147,-0.3864 -1.373901,-1.8032 l 0.128804,-0.8587 0.171737,-0.4294 -0.858688,0.4294 -1.459769,-0.086 q -0.343475,-0.3435 -1.030426,-1.3309 l -0.04293,-0.086 q -0.171738,0.086 -0.300541,0.086 -0.214672,0 -0.38641,-0.086 -0.128803,-0.086 -0.128803,-0.1718 -1.116294,-0.6869 -1.674441,-1.1162 -0.558148,-0.4723 -0.558148,-1.2881 0,-0.5152 0.429344,-0.6869 l 0,-0.086 q -0.171737,0.1717 -0.472278,0.1717 -0.08587,0 -0.128803,0 -0.04293,-0.043 -0.08587,-0.043 l -1.459769,0.086 q -0.38641,-0.1718 -0.558148,-0.4294 -0.171737,-0.2576 -0.472278,-0.5581 -0.300541,-0.3435 -0.858688,-0.7299 -0.515213,-0.4293 -1.631507,-0.9446 l -0.257607,-0.1288 q -0.08587,0.4294 -0.08587,0.6011 0,0.3006 0.04293,0.5582 0.04293,0.2146 0.04293,2.2755 0,0.2576 -0.04293,0.3864 l 0.128803,2.5331 q -0.08587,0.2147 -0.04293,0.687 0.04293,0.4723 0.04293,0.6869 0,0.2147 0,0.6011 0,0.2147 -0.04293,0.4723 0,0.2576 0,0.4723 0,0.4722 0.04293,0.8587 0.04293,0.4293 0.128803,0.7298 -0.08587,0.2576 -0.386409,0.5582 -0.257607,0.3005 -0.858688,0.3864 l -1.717376,0 q -0.08587,-0.043 -0.214672,-0.043 -0.128803,0 -0.214672,-0.043 -0.04293,0 -0.08587,0 0,0.043 -0.08587,0.043 -0.171737,0 -0.472278,-0.1288 -0.472278,0.2576 -1.116294,0.2576 -0.38641,0 -0.901623,-0.1288 l -0.04293,0 q -0.644016,0 -0.901623,-0.6011 -0.214672,-0.5582 -0.214672,-1.0734 0,-0.4723 0.04293,-0.9445 0.04293,-0.5152 0.04293,-0.9446 0,-0.3435 -0.04293,-0.4723 0.128803,-0.5152 0.343475,-0.7728 l -0.214672,-0.3005 0.214672,-0.4294 -0.214672,-2.7478 q 0,-0.043 -0.04293,-0.086 0,-0.043 0,-0.086 0,-0.2147 0.128803,-0.3864 0.171737,-0.1718 0.386409,-0.3006 -0.343475,-0.086 -0.386409,-0.3434 -0.04293,-0.3006 -0.128803,-0.6441 0.08587,-0.3434 0.08587,-0.5581 0,-0.3435 -0.08587,-0.7299 -0.04293,-0.3864 -0.04293,-0.7299 0,-0.2576 0.04293,-0.3864 l 0,-0.086 q 0,-0.2577 0.214672,-0.5582 0.214672,-0.3005 0.601081,-0.3864 l -1.030425,-3.263 q 0,-0.5152 0.343475,-0.7728 0.343475,-0.3006 0.772819,-0.3006 l 0.171738,0 q 0.08587,0 0.128803,0 0.04293,-0.043 0.128803,-0.043 0.300541,0 0.644016,0.086 0.38641,0.086 0.729885,0.086 0.128803,0 0.214672,0 0.128803,-0.043 0.257606,-0.086 l 0.429344,0.043 0.214672,-0.2147 q 0.515213,0.086 0.901623,0.1718 0.429344,0.086 0.815753,0.086 0.171738,0 0.300541,0 0.128803,-0.043 0.300541,-0.086 l 0.472278,0.1288 0.515213,-0.3435 -0.515213,-0.086 -0.300541,-0.1288 q -0.815753,0.1288 -1.288032,0.086 -0.429344,-0.043 -0.987491,0.086 l -1.030425,0.043 q -0.472279,-0.1288 -0.858688,-0.1288 -0.171738,0 -0.343476,0.043 -0.128803,0 -0.30054,0 -0.128804,0 -0.257607,0 -0.128803,-0.043 -0.257606,-0.043 l -0.171738,0 q -0.343475,0 -0.68695,-0.2576 -0.343475,-0.3006 -0.38641,-0.644 l 0.214672,-1.975 q 0,-0.5582 0.257607,-0.8158 0.257606,-0.3005 0.601081,-0.4293 l 2.361392,0.1717 1.030426,-0.086 q 0.257606,0.086 0.429344,0.086 0.214672,0 0.429344,-0.043 0.214672,-0.043 0.472278,-0.043 0.171738,0 0.601082,0.086 l 0.472278,0.1288 0.300541,-0.3005 2.232589,0.1717 0.558147,0.1718 0.558147,-0.1718 0.644016,0 q 0.515213,0.086 0.815753,0.5152 0.300541,0.3864 0.300541,0.7728 0,0.4723 -0.386409,0.6441 l -0.729885,0.5581 -0.729885,0.2576 q -0.171737,0.1718 -0.386409,0.6011 l -0.257607,0.1717 -0.901622,0.687 -1.502704,-0.1288 z"
         style="font-style:normal;font-variant:normal;font-weight:normal;font-stretch:normal;font-size:42.93439865px;line-height:125%;font-family:'Zekton Dots';-inkscape-font-specification:'Zekton Dots, Normal';text-align:start;writing-mode:lr-tb;text-anchor:start"
         id="path13250"
         inkscape:connector-curvature="0" />
      <path
         d="m -26.384783,1190.2906 q -0.08587,-0.043 -0.171737,-0.043 -0.08587,-0.043 -0.171738,-0.086 l -0.343475,0.1288 0.343475,0.1288 q 0.08587,-0.043 0.171738,-0.043 0.08587,-0.043 0.171737,-0.086 z m 2.704867,-0.2146 q -0.171737,0.043 -0.429344,0.2146 0.08587,0.043 0.214672,0.086 0.128804,0.043 0.214672,0.086 0.08587,-0.043 0.171738,-0.086 0.128803,-0.043 0.214672,-0.086 -0.08587,-0.086 -0.214672,-0.086 -0.08587,-0.043 -0.171738,-0.1288 z m 3.005408,0.043 -0.386409,0.1717 q 0.128803,0.1288 0.472278,0.2576 0.08587,-0.086 0.214672,-0.1288 0.171738,-0.043 0.257607,-0.1288 l -0.472279,-0.2576 -0.08587,0.086 z m 3.048343,0.4293 q 0.128803,-0.086 0.30054,-0.1288 0.171738,-0.043 0.257607,-0.086 -0.214672,-0.086 -0.300541,-0.1718 -0.08587,-0.1288 -0.214672,-0.2146 -0.08587,0.1717 -0.300541,0.2146 -0.171737,0.043 -0.257606,0.1288 l 0.515213,0.2576 0,0 z m -12.150435,-0.601 q -0.08587,0.086 -0.257607,0.1717 -0.171737,0.086 -0.30054,0.1717 0.30054,0.1288 0.601081,0.4294 0.08587,-0.2576 0.257607,-0.3006 0.171737,-0.043 0.386409,-0.1288 -0.214672,-0.086 -0.386409,-0.1717 -0.128804,-0.086 -0.300541,-0.1717 z m 15.799859,0.3864 q -0.257607,-0.1718 -0.601082,-0.4294 -0.171738,0.1718 -0.300541,0.2576 -0.08587,0.043 -0.300541,0.1288 0.214672,0 0.343476,0.1718 0.128803,0.1717 0.257606,0.2576 l 0.68695,-0.3435 q -0.04293,0 -0.08587,-0.043 z m 1.416835,-8.6728 q 0.515212,0.1288 0.772819,0.4723 0.257606,0.3435 0.300541,0.6869 l 0,2.0609 q 0,0.2576 -0.38641,0.6011 -0.343475,0.3005 -0.601081,0.3864 l -1.245098,-0.086 q -0.257606,-0.043 -0.515213,-0.1717 -0.257606,-0.1718 -0.472278,-0.3435 -0.171738,0.1717 -0.343475,0.3435 -0.171738,0.1288 -0.343476,0.2576 l -1.502704,0 q -0.472278,-0.086 -0.772819,-0.4294 -0.257606,-0.3434 -0.386409,-0.644 l 0.171737,-2.1896 q 0.04293,-0.3435 0.300541,-0.6011 0.257606,-0.3006 0.558147,-0.3006 0.128803,0 0.171738,0.043 l 1.330966,-0.086 q 0.300541,0 0.515213,0.1288 0.214672,0.1288 0.429344,0.3435 0.214672,-0.1288 0.38641,-0.2576 0.214672,-0.1718 0.386409,-0.1718 l 1.245098,-0.043 z m -19.792758,4.0788 q -0.08587,0 -0.214672,0 -0.128803,-0.043 -0.214672,-0.043 l -0.214672,0 q -0.04293,0 -0.04293,0 l -2.704868,0 -0.644016,-0.601 -0.171737,-2.3185 q 0.08587,-0.5152 0.386409,-0.7728 0.300541,-0.2576 0.558148,-0.3006 0.68695,0.1289 1.116294,0.1289 0.343475,0 0.601082,-0.043 0.257606,-0.043 0.68695,-0.1288 0.08587,0.043 0.214672,0.043 0.128803,0 0.214672,0.043 0.08587,-0.043 0.214672,-0.043 0.128803,-0.043 0.300541,-0.1717 l 2.060851,0.043 q 0.472278,0.086 0.729885,0.4723 0.30054,0.3435 0.30054,0.687 l -0.04293,0.7728 q -0.08587,0.2147 -0.171738,0.4293 -0.04293,0.1718 -0.04293,0.3864 0,0.3006 0.04293,0.4723 -0.04293,0.3006 -0.343475,0.5582 -0.300541,0.2146 -0.815753,0.2146 l -0.128804,0 -1.674441,0.1718 z m -2.790736,-4.5081 q -0.08587,-0.4294 -0.257606,-0.8587 -0.171738,-0.4294 -0.38641,-1.0734 0,-0.043 0.214672,-0.3435 0.214672,-0.3434 0.558147,-0.644 0.343475,-0.3434 0.815754,-0.6011 0.472278,-0.3005 1.030425,-0.3005 0.08587,0.043 0.214672,0.043 0.128804,0 0.214672,0.043 l 2.490195,-0.086 0.472279,0.1288 q 0.128803,-0.086 0.214672,-0.086 0.128803,0 0.214672,-0.043 l 2.017917,-0.043 q 0.171737,0.086 0.30054,0.1717 0.171738,0.043 0.300541,0.043 0.171738,-0.1288 0.429344,-0.1288 0.214672,0 0.300541,0.043 l 1.588573,-0.086 q 0.214672,0.086 0.386409,0.1288 0.171738,0 0.343475,0.086 0.08587,-0.1288 0.214672,-0.1288 0.171738,-0.043 0.257607,-0.1288 l 1.846179,0 q 0.214672,0.043 0.343475,0.1717 0.171738,0.086 0.38641,0.1717 0.08587,-0.086 0.214672,-0.1288 0.128803,-0.043 0.515213,-0.2146 l 1.459769,0.086 q 0.214672,0.043 0.38641,0.1288 0.214672,0.043 0.386409,0.1288 0.171738,-0.1717 0.38641,-0.2146 0.214672,-0.043 0.429344,-0.2147 l 1.502704,0.2576 q 0.644016,0 0.901622,0.9446 0.429344,-0.3006 0.815754,-0.3864 0.386409,-0.1288 0.644016,-0.2576 0.472278,0.2576 0.729884,0.6869 0.300541,0.4293 0.77282,0.9016 l 0,0.4723 q 0,0.4723 -0.300541,0.9446 -0.257607,0.4293 -0.729885,0.4722 l -1.288032,0 q -0.214672,-0.086 -0.386409,-0.2146 -0.171738,-0.1718 -0.343476,-0.2576 -0.30054,0.1288 -0.472278,0.2576 -0.171738,0.1288 -0.515213,0.1717 l -1.245097,-0.1288 q -0.257607,-0.043 -0.472279,-0.086 -0.214672,-0.043 -0.429344,-0.2576 -0.08587,0.2147 -0.300541,0.3006 -0.214672,0.043 -0.343475,0.086 l -1.588572,0 q -0.214672,0 -0.38641,-0.043 -0.171738,-0.086 -0.343475,-0.1717 -0.214672,0.086 -0.38641,0.1717 -0.171737,0.043 -0.386409,0.2147 l -1.631508,-0.1288 q -0.171737,-0.043 -0.343475,-0.1288 -0.171737,-0.086 -0.343475,-0.1718 -0.128803,0.1718 -0.300541,0.2147 -0.128803,0 -0.300541,0.043 l -1.889113,0.043 q -0.300541,-0.043 -0.558147,-0.2147 -0.171738,0.086 -0.257607,0.086 -0.171737,0 -0.171737,-0.086 l -2.060851,0.1717 q -0.171738,0 -0.515213,-0.086 l -0.171738,0 q -0.214672,0 -0.343475,-0.1288 l -2.060851,0.2146 q -0.08587,0 -0.214672,0 -0.128803,-0.043 -0.214672,-0.043 -0.214672,0 -0.38641,0.086 l -0.214672,0 q -0.343475,0 -0.644016,0.043 -0.30054,0.043 -0.601081,0.043 -0.171738,0 -0.515213,-0.086 z m 21.510134,22.8411 q -0.38641,-0.086 -0.601082,-0.2147 -0.171737,-0.086 -0.386409,-0.4293 -0.128804,0.3434 -0.343476,0.4293 -0.214672,0.1288 -0.515212,0.2147 l -1.330967,-0.086 q -0.472278,-0.043 -0.772819,-0.3005 -0.300541,0.2146 -0.729885,0.3005 l -1.588572,0 -0.729885,-0.3005 -0.729885,0.4722 -1.674442,-0.1717 -0.644016,-0.2147 -0.601081,0.3435 -1.803245,-0.1717 -0.601081,-0.1718 -0.472279,0.3006 -2.14672,-0.1288 -0.472278,-0.086 -2.404326,0.2147 q -1.159229,-0.1718 -1.202164,-0.9875 -0.171737,0.086 -0.386409,0.086 l -0.257607,0 q -0.772819,-0.601 -1.588572,-1.4168 -0.815754,-0.8587 -0.815754,-1.8891 0,-0.2147 0.08587,-0.3435 0.128803,-0.1717 0.214672,-0.3864 l -0.257607,-0.3864 -0.08587,-3.2201 q 0.08587,-0.2576 0.171737,-0.3864 0.128803,-0.1717 0.343475,-0.3435 -0.558147,-0.4293 -0.601081,-1.2021 l 0.171737,-2.4043 q 0,-0.3435 0.171738,-0.5582 0.214672,-0.2576 0.472278,-0.3435 -0.214672,-0.1717 -0.472278,-0.3434 -0.257606,-0.1718 -0.257606,-0.4723 l 0,-2.4473 q 0.08587,-0.3435 0.30054,-0.644 0.214672,-0.3005 0.515213,-0.3005 0.08587,0 0.257607,0.086 l 2.189654,-0.2146 q 0.08587,0.043 0.214672,0.043 0.128803,0 0.214672,0.043 0.08587,-0.043 0.214672,-0.043 0.128803,0 0.257606,-0.043 l 1.717376,-0.086 q 0.343475,0.086 0.558147,0.3005 0.214672,0.2147 0.429344,0.4294 0.343476,-0.2576 0.644016,-0.2576 l 1.674442,0 q 0.214672,0 0.300541,0.086 0.08587,0.043 0.214672,0.1288 0.171737,-0.1288 0.300541,-0.1288 0.128803,0 0.171737,-0.086 l 1.932048,0 0.644016,0.2146 q 0.128803,-0.1288 0.343475,-0.1288 0.08587,0 0.171738,0.043 0.128803,0 0.300541,0.043 l 1.459769,-0.2147 q 0.214672,0.086 0.429344,0.1718 0.214672,0.086 0.429344,0.1717 0.128803,-0.1288 0.300541,-0.1717 0.171738,-0.043 0.38641,-0.1288 l 0.472278,0 q 0.214672,-0.086 0.38641,-0.043 0.214672,0.043 0.429343,-0.043 0.257607,0 0.429344,0.043 0.214672,0 0.429344,0.1718 0.171738,-0.1718 0.429344,-0.3006 0.257607,-0.1717 0.515213,-0.2146 l 1.545639,0.043 q 0.214672,0 0.343475,0.1288 0.128803,0.1288 0.257606,0.2147 0.343475,-0.3435 0.644016,-0.3435 0.04293,0 0.300541,0.086 l 1.159229,0 q 0.386409,0 0.729884,0.2146 0.343476,0.2147 0.343476,0.687 l 0,0.086 q 0.04293,0.1718 0.04293,0.5153 0,0.3005 -0.04293,0.601 0,0.3006 0,0.6011 0,0.3006 0.04293,0.4723 l -0.257606,0.7299 -0.815754,0.3435 -1.416835,0 q 0.472278,0.086 0.858688,0.4722 0.38641,0.3865 0.38641,0.7729 0,0.3005 -0.171738,0.4722 -0.343475,0.3435 -0.815754,0.3435 -0.515212,0 -0.68695,-0.4293 l -0.04293,0.3864 q -0.429344,0.6011 -0.858688,1.0304 -0.38641,0.3864 -1.116295,0.3864 l -0.08587,0 q -0.257606,0.086 -0.515212,0.086 -0.38641,0 -0.515213,-0.1718 -0.472279,0.3006 -0.772819,0.3006 l -0.08587,0 -1.674442,0.043 q -0.429344,0 -0.601081,-0.2576 -0.257607,0.2147 -0.729885,0.3435 l -1.674442,-0.043 -0.644016,-0.2147 -0.214672,0.1288 -2.232588,0.086 q -0.171738,0 -0.300541,-0.043 -0.128803,-0.043 -0.343475,-0.086 -0.128803,0.043 -0.300541,0.086 -0.128803,0 -0.343475,0.043 l -1.416835,0 q -0.214672,-0.086 -0.38641,-0.086 -0.171738,-0.043 -0.38641,-0.1718 -0.171737,0.8158 -0.772819,0.9446 0.472279,0.5152 0.644016,0.8158 0.214672,0.3005 0.257607,0.5152 0.08587,0.1717 0.08587,0.3434 0.04293,0.1289 0.214672,0.3865 l 0,0.3864 q 0.08587,-0.086 0.128804,-0.1288 0.08587,-0.043 0.128803,-0.1288 0.300541,0.086 0.472278,0.086 0.214672,0 0.429344,0.043 l 0.815754,0 q 0.128803,0 0.214672,0.086 0.128803,0.043 0.214672,0.043 0.128803,-0.086 0.300541,-0.086 0.214672,0 0.472278,-0.043 l 1.674441,0 q 0.171738,0.043 0.300541,0.086 0.171738,0.043 0.38641,0.1288 0.08587,-0.1717 0.257606,-0.1717 0.214672,-0.043 0.472279,-0.1288 l 1.502704,0.043 q 0.214672,0.086 0.429344,0.1718 0.214672,0.043 0.343475,0.1288 0.300541,-0.2576 0.772819,-0.2576 l 1.416835,0.043 q 0.257606,0 0.429344,0.086 0.214672,0.086 0.429344,0.2576 0.171738,-0.2147 0.343475,-0.3006 0.171738,-0.086 0.300541,-0.2146 l 1.416835,0.086 q 0.300541,0.043 0.515213,0.2147 0.257606,0.1717 0.343475,0.3864 0.257607,-0.5581 0.944557,-0.5581 l 0.343475,-0.043 q 0.38641,0 0.729885,0.3864 0.343475,0.3435 0.343475,0.687 l 0,0.043 0.04293,0.2576 q 0,0.1288 -0.08587,0.3006 -0.08587,0.1288 -0.171738,0.2576 0.343475,0.1717 0.472278,0.5152 0.128804,0.3435 0.343476,0.6869 -0.214672,0.3435 -0.343476,0.9875 -0.08587,0.644 -0.214672,1.2451 -0.128803,0.644 -0.343475,1.1163 -0.214672,0.4723 -0.644016,0.4723 l -0.128803,0 -0.257606,0.086 z"
         style="font-style:normal;font-variant:normal;font-weight:normal;font-stretch:normal;font-size:42.93439865px;line-height:125%;font-family:'Zekton Dots';-inkscape-font-specification:'Zekton Dots, Normal';text-align:start;writing-mode:lr-tb;text-anchor:start"
         id="path13252"
         inkscape:connector-curvature="0" />
      <path
         d="m 14.755757,1190.2906 q 0.214672,0.043 0.343475,0.1718 0.128804,0.1288 0.300541,0.2146 0.214672,-0.2146 0.644016,-0.3864 -0.171737,-0.086 -0.343475,-0.1717 -0.171738,-0.086 -0.343475,-0.2576 -0.08587,0.2147 -0.257607,0.3005 -0.128803,0.043 -0.343475,0.1288 z m 2.833671,-12.7944 q 0.04293,-0.043 0.171737,-0.043 0.300541,0 0.515213,0.3006 0.257606,0.3005 0.429344,0.7728 l -0.128803,1.8462 q 0,0.3005 -0.343475,0.5152 -0.300541,0.2147 -0.644016,0.2147 l -1.245098,0 q -0.300541,0 -0.558147,-0.086 -0.214672,-0.086 -0.38641,-0.1717 -0.128803,0.2146 -0.343475,0.2576 -0.171738,0 -0.515213,0.086 l -1.416835,0 q -0.429344,0 -0.772819,-0.3005 -0.343475,-0.3005 -0.38641,-0.7728 l 0.128804,-1.5457 q 0.08587,-1.2021 0.901622,-1.2021 l 1.502704,-0.043 q 0.601081,0.086 0.901622,0.4294 0.429344,-0.2576 0.858688,-0.3864 l 1.330967,0.1288 z m -0.128804,4.2075 q 0.08587,0 0.08587,0 0.04293,-0.043 0.128803,-0.043 0.429344,0 0.686951,0.3864 0.300541,0.3435 0.343475,0.7728 l -0.08587,1.8033 q -0.08587,0.4293 -0.386409,0.7728 -0.300541,0.3005 -0.644016,0.3005 l -1.288032,0.1289 q -0.558148,0 -0.901623,-0.4723 -0.171737,0.1288 -0.386409,0.2576 -0.214672,0.086 -0.601082,0.1717 l -1.07336,0.043 q -0.515213,-0.086 -0.858688,-0.3435 -0.343475,-0.2576 -0.343475,-0.5582 l 0.128803,-2.0608 q -0.04293,-0.086 -0.04293,-0.3006 0,-0.4722 0.343475,-0.7298 0.343475,-0.3006 0.644016,-0.3006 l 1.459769,0.2147 q 0.214672,0 0.343476,0.1717 0.171737,0.1288 0.386409,0.3006 0.214672,-0.2147 0.429344,-0.3435 0.214672,-0.1718 0.472279,-0.2576 l 1.159228,0.086 z m -19.7927574,-0.5152 q -0.085869,0 -0.214672,0 -0.1288032,-0.043 -0.214672,-0.043 l -0.1288032,0 q -0.2146719,0 -0.3005407,-0.1717 l -2.1896544,0.086 q -0.085869,0.043 -0.2576064,0.043 -0.3434752,0 -0.5581471,-0.2576 -0.214672,-0.3006 -0.214672,-0.7299 l -0.085869,-1.6315 q 0,-0.4294 0.3434752,-0.8158 0.3434751,-0.3864 0.6869503,-0.3864 l 2.2755232,0.086 q 0.085869,0.043 0.214672,0.043 0.1288031,0 0.2146719,0.043 0.3005408,-0.086 0.3005408,-0.086 l 1.88911358,0 q 0.47227838,0 0.77281917,0.3434 0.30054079,0.3006 0.38640959,0.7299 l -0.0858688,1.7603 q 0,0.4723 -0.34347519,0.687 -0.34347519,0.2147 -0.55814718,0.3864 l -1.93204797,-0.086 z m 0,4.5511 q -0.085869,0 -0.214672,0 -0.1288032,-0.043 -0.214672,-0.043 -0.085869,0 -0.2146719,0.043 -0.1288032,0 -0.214672,0 l -2.1037856,0 2.1037856,0.2147 q 0.085869,0.043 0.214672,0.043 0.1288031,0 0.2146719,0.043 0.085869,-0.043 0.1717376,-0.043 0.1288032,0 0.1717376,-0.043 l 1.84617918,0.086 q 0.42934398,0 0.68695037,0.2147 0.30054079,0.2147 0.30054079,0.5581 0,0.086 -0.0858688,0.3435 l 0.30054079,2.0179 q -0.0858688,0.4294 -0.30054079,0.8158 -0.214672,0.3435 -0.77281918,0.4293 l 0.1288032,0 q 0.38640959,0 0.60108158,0.3006 0.25760639,0.2576 0.47227838,0.4723 l -0.17173759,2.7048 q -0.0429344,0.3006 -0.34347519,0.5152 -0.25760639,0.2147 -0.47227839,0.4294 0.51521279,0.4293 0.60108159,1.0304 0.12880319,0.5581 0.47227838,0.9446 l 0,0.3864 q 0.0858688,-0.086 0.1288032,-0.1288 0.0858688,-0.043 0.17173758,-0.1288 0.214672,0.086 0.429344,0.086 0.214672,0 0.4722784,0.043 l 0.7728192,0 q 0.1288032,0 0.2576064,0.086 0.1288032,0.043 0.2576064,0.1288 0.1288031,-0.1288 0.3434751,-0.1288 0.1288032,0 0.214672,0.043 l 1.7603104,-0.1718 q 0.214672,0.086 0.3434752,0.1288 0.1717376,0.043 0.3434752,0.1288 l 0.7728191,-0.2146 1.5885728,0.043 q 0.214672,0 0.3434752,0.1288 0.1717376,0.086 0.3864096,0.1717 0.085869,-0.2146 0.2576064,-0.2576 0.2146719,-0.086 0.4722787,-0.1717 l 1.459769,0.086 q 0.214672,0 0.558147,0.2576 l -0.128803,-1.7603 q 0.08587,-0.4723 0.601082,-0.7729 -0.300541,-0.1717 -0.38641,-0.5152 -0.04293,-0.3434 -0.214672,-0.6869 l 0.128803,-2.3614 q 0.04293,-0.2576 0.128804,-0.5582 0.08587,-0.3434 0.429344,-0.3434 l 0.08587,0 q -0.128803,-0.086 -0.343475,-0.2576 -0.214672,-0.2147 -0.214672,-0.5153 0,-0.2146 0.08587,-0.3434 l -0.343475,-2.2326 q 0.04293,-0.4723 0.343475,-0.7728 0.343475,-0.3435 0.944557,-0.3435 l 1.330966,0.1717 q 0.257606,0 0.429344,0.1288 0.214672,0.086 0.343475,0.1718 0.171738,-0.1288 0.343475,-0.2576 0.214672,-0.1288 0.472279,-0.1288 l 0.08587,0 1.545638,0.043 0.644016,0.6011 0.08587,2.619 -0.128803,0.5581 -0.601082,0.6011 0.04293,0 q 0.214672,0 0.38641,0.2576 0.171738,0.2576 0.171738,0.7728 l 0,0.1288 0.08587,2.4473 -0.386409,0.7299 q 0.214672,0.1717 0.300541,0.3864 0.128803,0.1717 0.343475,0.3864 l -0.257607,2.8337 -0.343475,0.7728 0.257607,0.3435 0.08587,3.4347 -0.257606,0.6011 q 0.171738,0.2576 0.171738,0.3435 0,0.1717 -0.171738,0.3434 l 0.257606,3.2631 q 0,0.1288 -0.04293,0.2576 -0.04293,0.1288 -0.08587,0.2576 0.08587,0.1288 0.08587,0.2576 0,0.1288 0.08587,0.2146 l -0.04293,0.8587 q 0,0.086 -0.171737,0.4294 -0.128803,0.3864 -0.429344,0.8157 -0.300541,0.4723 -0.772819,0.8158 -0.472279,0.3435 -1.159229,0.3435 -0.171738,0 -0.343475,-0.086 -0.171738,0.3435 -0.343476,0.6011 -0.171737,0.3005 -0.386409,0.3005 l -0.04293,0 q -0.343475,0.2147 -0.68695,0.3864 -0.343475,0.1718 -0.68695,0.1718 l -0.08587,0 -0.214672,-0.043 q -0.515213,0 -0.901622,-0.3435 -0.171738,0.3006 -0.77282,0.4294 l -1.3739,0 q -0.4722787,0 -0.7298851,-0.3435 -0.2576064,0.2576 -0.6869504,0.2576 l -1.7603104,0.086 q -0.214672,-0.086 -0.3434752,-0.1288 -0.085869,-0.043 -0.3005407,-0.1288 -0.1288032,0.086 -0.3434752,0.1288 -0.1717376,0.043 -0.3005408,0.086 l -1.8461792,-0.043 q -0.1717376,0 -0.3005408,-0.086 -0.1288032,-0.043 -0.2576063,-0.043 l -0.6869504,0.086 -2.10378557,0.086 q -0.34347519,0 -0.60108158,-0.3865 -0.25760639,-0.3434 -0.34347519,-0.8586 0.0858688,-0.3435 0.0858688,-0.687 0.0429344,-0.3435 0.0429344,-0.6869 l 0,-1.975 q 0,-0.1288 0.0429344,-0.2576 0.0429344,-0.086 0.0858688,-0.2147 -0.0858688,-0.1288 -0.0858688,-0.2576 0,-0.1288 -0.0429344,-0.2576 l 0.12880319,-0.8158 q -0.0429344,-0.043 -0.0429344,-0.1717 0,-0.2576 0.214672,-0.4723 0.21467199,-0.2147 0.55814718,-0.2147 l 2.14671997,-0.1717 q 0.214672,0.043 0.3434752,0.086 0.1288032,0.043 0.2576064,0.1288 0.1717375,-0.1288 0.3864095,-0.1288 0.085869,0 0.085869,0 0.042934,0.043 0.1288032,0.043 l 1.8032448,-0.086 q 0.3434752,0 0.6869504,0.2576 0.1288032,-0.1717 0.3005407,-0.1717 0.085869,0 0.1717376,0 0.1288032,0.043 0.214672,0.043 l 1.6315072,-0.1288 q 0.429344,0.086 0.644016,0.2576 0.214672,-0.086 0.3864096,-0.1288 0.1717375,-0.043 0.3864091,-0.1288 l 0.515213,0.043 q 0.214672,0 0.472278,-0.086 0.257607,-0.043 0.558148,-0.043 0.30054,0 0.429344,0.043 l 0.04293,-1.4168 q 0,-0.1288 0.08587,-0.3864 -0.128803,0.086 -0.300541,0.086 -0.128803,0 -0.171738,-0.043 l -1.717376,0.1288 q -0.3434745,0 -0.6440153,-0.3005 -0.214672,0.2146 -0.5581472,0.2146 l -1.8461792,0.086 q -0.1717376,-0.043 -0.3005408,-0.086 -0.1288031,-0.043 -0.3434751,-0.086 -0.1288032,0.086 -0.2576064,0.1288 -0.1288032,0.043 -0.214672,0.043 l -2.0179168,0.043 q -0.1288032,-0.043 -0.2576064,-0.1288 -0.085869,-0.043 -0.2146719,-0.043 l -0.085869,0 q -0.1717376,0.086 -0.214672,0.086 -0.085869,0 -0.2576064,-0.086 l -2.06085118,0.1288 q -0.12880319,0 -0.25760639,-0.043 -0.12880319,-0.043 -0.25760639,-0.086 -0.0858688,0.086 -0.21467199,0.086 -0.1288032,0 -0.30054079,0.043 l -2.23258876,-0.086 q -0.7728191,0 -0.9016223,-0.7728 -0.085869,0.086 -0.214672,0.1288 -0.085869,0.043 -0.3434752,0.1288 -0.7728192,-0.4723 -1.288032,-1.1592 -0.4722784,-0.687 -1.0304255,-1.9321 l -0.1288032,-0.3434 0.3005407,-0.8158 -0.2576063,-0.3864 0.214672,-0.4723 -0.214672,-2.7048 q -0.085869,-0.2576 -0.085869,-0.3006 0,-0.3005 0.4722783,-0.5581 l -0.4293439,-0.5152 -0.1717376,-2.8766 q 0.1288032,-0.3865 0.2576064,-0.687 0.1717376,-0.3005 0.5581471,-0.4723 -0.2576064,0 -0.4722783,-0.2146 -0.1717376,-0.2147 -0.1717376,-0.6011 l -0.085869,-2.4473 q 0.085869,-0.3864 0.3864095,-0.6869 0.3005408,-0.3435 0.8157536,-0.4723 l -0.085869,0 q -0.6010816,0 -0.9016223,-0.3435 -0.2576064,-0.3864 -0.3864096,-0.8587 l 0.2576064,-1.932 q 0,-0.4294 0.2576064,-0.687 0.3005407,-0.3005 0.5152127,-0.4723 l 2.4472608,0.2147 q 0.085869,0.043 0.214672,0.043 0.1288031,0 0.2146719,0.043 0.085869,-0.043 0.214672,-0.043 0.1717376,0 0.3864096,-0.043 l 1.58857277,0.043 q 0.42934398,0.086 0.72988477,0.3865 0.30054079,0.2576 0.30054079,0.601 l 0.0429344,1.8462 q 0,0.6011 -0.30054079,0.8587 -0.25760639,0.2576 -0.81575357,0.3864 l -1.71737597,-0.043 z"
         style="font-style:normal;font-variant:normal;font-weight:normal;font-stretch:normal;font-size:42.93439865px;line-height:125%;font-family:'Zekton Dots';-inkscape-font-specification:'Zekton Dots, Normal';text-align:start;writing-mode:lr-tb;text-anchor:start"
         id="path13254"
         inkscape:connector-curvature="0" />
      <path
         d="m 45.322373,1190.3336 q 0.38641,0 0.601082,0.4293 0.171738,-0.1717 0.343475,-0.2576 0.214672,-0.1288 0.300541,-0.2147 -0.214672,-0.086 -0.343475,-0.1717 -0.128803,-0.1288 -0.257607,-0.2576 -0.214672,0.3435 -0.644016,0.4293 l 0,0.043 z m -17.08789,-22.8411 q -0.08587,0 -0.214672,0 -0.128804,-0.043 -0.214672,-0.043 l -0.171738,0 q -0.214672,0 -0.343475,-0.086 -0.38641,0 -0.901622,0.086 -0.472279,0.043 -1.159229,0.086 l -0.08587,0 q -0.343475,0 -0.68695,-0.3435 -0.300541,-0.3864 -0.343476,-0.6869 l -0.08587,-0.644 q 0.128803,-0.3006 0.386409,-0.5582 0.257607,-0.3005 0.472279,-0.3005 l 0.08587,0 q 0.601082,-0.043 1.07336,-0.086 0.515213,-0.086 0.944557,-0.086 0.472278,0 0.815754,0.1288 0.04293,0 0.08587,0 0.04293,-0.043 0.128804,-0.043 0.04293,0 0.04293,0.043 0.04293,0 0.08587,0 l 1.717376,-0.1288 q 1.116294,0.2147 1.202163,1.1163 l 0.04293,0.5582 q 0,0.4293 -0.30054,0.7299 -0.257607,0.2576 -0.729885,0.3434 l -1.846179,-0.086 z m -0.04293,4.551 q -0.08587,0 -0.214672,0 -0.128803,-0.043 -0.214672,-0.043 -0.08587,0 -0.171737,0.043 -0.08587,0 -0.08587,0.043 l 0.04293,0.043 q -0.772819,-0.1288 -1.416835,-0.1288 -0.300541,0 -0.558147,0.043 -0.257606,0 -0.515213,0.043 -0.343475,-0.086 -0.601081,-0.3434 -0.257607,-0.3006 -0.300541,-0.687 l -0.08587,-1.1163 q 0,-0.086 -0.04293,-0.086 0,-0.043 0,-0.1288 0,-0.3435 0.30054,-0.5582 0.300541,-0.2576 0.686951,-0.2576 l 0.128803,0 q 0.558147,-0.1717 1.116294,-0.1717 l 0.429344,0 q 0.171738,0 0.300541,0 0.171738,0 0.38641,-0.043 0.08587,0.043 0.214672,0.043 0.128803,0 0.214672,0.043 0.04293,0 0.08587,0 0.04293,-0.043 0.128804,-0.043 0.08587,0 0.08587,0.043 0.04293,0 0.128804,0 l 1.889113,-0.086 q 0.04293,0 0.04293,0 0.04293,-0.043 0.08587,-0.043 0.257607,0 0.429344,0.3435 0.214672,0.3434 0.257607,0.6869 l 0.08587,1.1592 q -0.08587,0.6011 -0.38641,0.9017 -0.300541,0.3005 -0.729885,0.4293 l -1.717376,-0.1288 z m 0,4.5511 q -0.08587,0 -0.214672,0 -0.128803,-0.043 -0.214672,-0.043 -0.08587,0 -0.214672,0.043 -0.08587,0 -0.128803,0 -0.300541,0 -0.558147,0 -0.214672,-0.043 -0.429344,-0.043 -0.601082,0 -1.245098,0.1718 -0.472278,-0.1288 -0.772819,-0.3865 -0.257606,-0.3005 -0.343475,-0.8157 l 0.04293,-1.4598 q 0,-0.043 -0.04293,-0.086 0,-0.043 0,-0.086 0,-0.3435 0.343475,-0.6011 0.38641,-0.2576 0.944557,-0.4723 0.472278,0 0.858688,0.086 0.429344,0.086 0.901622,0.086 l 0.214672,0 q 0.08587,0.043 0.214672,0.043 0.128803,0 0.214672,0.043 0.257607,-0.086 0.257607,-0.086 l 2.017916,0.1288 q 0.343476,0 0.601082,0.2576 0.300541,0.2146 0.300541,0.644 l 0.171737,1.5027 q -0.08587,0.3435 -0.386409,0.7299 -0.300541,0.3864 -0.772819,0.4723 l -1.760311,-0.1288 z m 19.878627,5.0233 0.729885,0.2576 0.386409,0.7299 -0.171737,2.1896 q 0,0.3435 -0.257607,0.644 -0.257606,0.2576 -0.558147,0.2576 l -1.416835,0.086 q -0.214672,-0.043 -0.38641,-0.1288 -0.171737,-0.1288 -0.386409,-0.4293 -0.214672,0.3005 -0.472279,0.3864 -0.214672,0.086 -0.429344,0.1717 l -1.202163,-0.2147 q -0.128803,0.043 -0.343475,0.043 -0.38641,0 -0.558147,-0.2576 -0.171738,-0.3006 -0.171738,-0.644 l 0,-0.2147 -0.08587,-1.8462 q 0,-0.4293 0.257607,-0.6869 0.257606,-0.3006 0.601081,-0.3006 l 0.171738,0 1.45977,-0.086 q 0.214672,0 0.386409,0.2147 0.214672,0.1718 0.343475,0.3864 0.171738,-0.3005 0.429344,-0.3864 0.300541,-0.1288 0.558147,-0.2147 l 1.116295,0.043 z m -19.878627,4.1217 q -0.08587,0 -0.214672,0 -0.128803,-0.043 -0.214672,-0.043 l -0.386409,0.1289 q -0.686951,-0.043 -1.159229,-0.086 -0.429344,-0.086 -1.030426,-0.1718 -0.08587,0 -0.128803,0.043 0,0 -0.08587,0 -0.386409,0 -0.644016,-0.3006 -0.257606,-0.3434 -0.257606,-0.6869 l -0.04293,-1.9321 q 0,-0.9445 1.288032,-1.0733 l 2.017916,0 q 0.08587,0.043 0.214672,0.086 0.128803,0 0.214672,0.043 0.257607,-0.086 0.429344,-0.086 l 1.803245,-0.1717 q 0.429344,0 0.68695,0.4293 0.257607,0.4294 0.38641,0.9446 l -0.04293,1.8032 -0.257607,0.7299 -0.815753,0.2576 -1.760311,0.086 z m 0,-4.594 q -0.08587,0 -0.214672,0 -0.128803,-0.043 -0.214672,-0.043 -0.08587,0 -0.257606,0.043 -0.128803,0 -0.343475,0 l -0.257607,0 q -0.214672,0 -0.472278,0.043 -0.214672,0 -0.515213,0 -0.214672,0 -0.386409,0 -0.171738,-0.043 -0.38641,-0.086 l -0.04293,0 q -0.343476,0 -0.729885,-0.3435 -0.38641,-0.3435 -0.38641,-0.8158 l 0,-0.043 0.08587,-1.5456 q 0,-0.4723 0.343475,-0.7299 0.343475,-0.3006 0.815754,-0.3006 l 0.08587,0 q 0.386409,-0.1288 0.944556,-0.1288 0.858688,0 1.502704,0.2147 0.08587,-0.043 0.214672,-0.043 0.171738,0 0.38641,-0.086 l 1.631507,0.086 q 0.472278,0 0.815754,0.4723 0.08587,-0.2147 0.343475,-0.3865 0.257606,-0.1717 0.472278,-0.1717 l 1.717376,0.086 q 0.171738,0 0.257607,0.086 0.128803,0.043 0.257606,0.043 0.08587,-0.086 0.257606,-0.086 0.171738,-0.043 0.300541,-0.086 l 1.76031,0 0.644016,0.1718 q 0.171738,-0.086 0.300541,-0.086 0.08587,0 0.343475,0.086 0.38641,0 0.729885,-0.086 0.38641,-0.1288 0.729885,-0.1288 0.300541,0 0.515213,0.1288 0.214672,0.1288 0.429344,0.2147 0.214672,-0.1718 0.343475,-0.2147 0.171737,-0.043 0.300541,-0.1288 l 1.631507,0.043 q 0.214672,0.086 0.386409,0.1288 0.214672,0.043 0.343476,0.2576 0.214672,-0.2146 0.429344,-0.3005 0.214672,-0.086 0.472278,-0.1717 l 1.288032,-0.043 q 0.300541,0.1288 0.644016,0.4294 0.343475,0.3005 0.429344,0.6011 0.472278,-0.1288 0.858688,-0.2576 0.429344,-0.1288 0.729885,-0.4723 0.558147,0.3864 0.729884,0.8587 0.171738,0.4722 0.644016,1.0304 l 0.04293,0.7299 q 0,0.4723 -0.343475,0.7299 -0.300541,0.2146 -0.644016,0.2146 l -1.416836,0 q -0.214672,0 -0.386409,-0.086 -0.171738,-0.1288 -0.343475,-0.2147 -0.171738,0.086 -0.300541,0.2147 -0.128803,0.086 -0.300541,0.086 -0.04293,0 -0.08587,0 -0.04293,-0.043 -0.08587,-0.043 l -1.502704,0.086 q -0.08587,0 -0.257607,-0.043 -0.171737,-0.043 -0.515213,-0.2146 -0.343475,0.2576 -0.901622,0.3864 l -1.373901,-0.086 -0.772819,-0.2147 q -0.128803,0.086 -0.300541,0.1288 -0.171737,0.043 -0.386409,0.086 l -1.674442,0 q -0.214672,-0.086 -0.386409,-0.1288 -0.128804,-0.043 -0.343476,-0.1288 -0.171737,0.2576 -0.729884,0.2576 l -1.803245,0 -0.601082,-0.086 -1.974982,0.086 q -0.214672,0 -0.515213,-0.086 -0.300541,-0.1288 -0.386409,-0.3005 l -0.429344,0.3005 q -0.04293,0 -0.08587,0.043 -0.04293,0 -0.08587,0 -0.171738,0 -0.429344,-0.1288 l -1.588573,0.1717 z m 20.909052,19.5781 q -0.08587,0.1717 -0.08587,0.3864 0,0.086 0.08587,0.3435 -0.515212,0.3864 -1.116294,0.9875 -0.558147,0.601 -1.159229,0.601 -0.214672,0 -0.429344,-0.043 -0.171737,-0.043 -0.386409,-0.2147 0.04293,0.1288 0.04293,0.3435 0,0.4294 -0.300541,0.6011 -0.30054,0.2147 -0.772819,0.2147 l -1.288032,0.043 q -0.429344,-0.086 -0.729885,-0.3864 -0.214672,0.1288 -0.386409,0.1717 -0.171738,0.086 -0.38641,0.1718 l -1.545638,0 -0.729885,-0.3006 -0.300541,0.2147 -0.68695,0.1288 -0.944557,0 -0.68695,-0.043 -0.644016,-0.086 -2.189655,0.086 -0.601081,-0.1718 -0.68695,0.3864 q -0.343476,-0.1717 -0.601082,-0.2576 -0.214672,-0.086 -0.515213,-0.086 -0.171737,0 -0.343475,0 -0.171738,0.043 -0.38641,0.086 l -0.515212,-0.1288 -0.558148,0.3006 -2.017916,-0.2147 q -0.38641,-0.086 -0.686951,-0.2576 -0.30054,-0.1717 -0.386409,-0.6011 -0.04293,0.043 -0.171738,0.043 0.04293,-0.043 -0.386409,-0.3434 -0.38641,-0.3006 -0.944557,-0.7729 -0.515213,-0.4722 -0.987491,-1.0304 -0.429344,-0.6011 -0.429344,-1.2021 0,-0.3435 0.171737,-0.6441 l -0.472278,-0.5581 0.171737,-2.9625 q 0,-0.2146 0.128804,-0.4723 0.171737,-0.3005 0.343475,-0.3864 -0.214672,-0.086 -0.343475,-0.2576 -0.08587,-0.1717 -0.08587,-0.3434 0,-0.043 0,-0.043 0.04293,-0.043 0.04293,-0.086 l -0.04293,-2.662 q 0,-0.043 -0.04293,-0.086 0,-0.043 0,-0.086 0,-0.3006 0.171738,-0.5152 0.214672,-0.2147 0.558147,-0.2147 l 0.08587,0 q -0.472278,-0.2147 -0.68695,-0.5152 -0.171738,-0.3435 -0.214672,-0.687 l 0.08587,-2.2755 q 0.08587,-0.3005 0.300541,-0.644 0.214672,-0.3435 0.686951,-0.5152 0.858688,0.2147 1.631507,0.2147 0.171737,0 0.300541,0 0.171737,-0.043 0.30054,-0.043 0.08587,0.043 0.214672,0.086 0.128803,0 0.214672,0.043 0.08587,-0.043 0.214672,-0.043 0.128803,-0.043 0.257607,-0.1288 l 1.846179,0.2147 q 0.04293,-0.043 0.171737,-0.043 0.300541,0 0.558148,0.3435 0.257606,0.3005 0.343475,0.8158 l -0.128803,1.9749 q -0.08587,0.4294 -0.214672,0.7299 -0.128804,0.2576 -0.601082,0.3864 0.472278,0.086 0.601082,0.3864 0.171737,0.3006 0.214672,0.6441 l 0.128803,2.4043 q -0.08587,0.4293 -0.429344,0.7299 -0.300541,0.2576 -0.515213,0.4722 0.38641,0.2576 0.515213,0.5153 0.171737,0.2146 0.257606,0.4293 0.08587,0.2147 0.128803,0.4723 0.08587,0.2147 0.257607,0.4293 l 0,0.3864 q 0.08587,-0.043 0.128803,-0.086 0.08587,-0.043 0.128803,-0.043 0.214672,0 0.38641,0.043 0.171737,0 0.343475,0 l 0.901622,0 q 0.171738,0.043 0.300541,0.086 0.171738,0.043 0.257606,0.086 0.08587,-0.086 0.257607,-0.086 0.257606,0 0.472278,0.043 l 1.631507,-0.1288 q 0.214672,0.086 0.343476,0.1288 0.171737,0.043 0.343475,0.1288 0.08587,-0.1718 0.300541,-0.2147 0.214672,-0.086 0.386409,-0.2147 0.38641,0.086 0.686951,0.1718 0.30054,0.043 0.601081,0.043 0.08587,0 0.171738,0 0.08587,-0.043 0.171737,-0.043 l 0.686951,0.3005 q 0.171737,-0.1288 0.386409,-0.1717 0.214672,-0.086 0.38641,-0.1288 l 0.515213,0 0.68695,-0.043 q 0.257606,-0.086 0.343475,-0.086 0.214672,0 0.429344,0.1288 l 0.128803,-1.4598 q -0.04293,-0.086 -0.04293,-0.2147 0,-0.2147 0.128803,-0.3864 0.171738,-0.1717 0.257607,-0.3005 -0.08587,-0.2147 -0.257607,-0.4294 -0.171737,-0.2146 -0.386409,-0.3005 l 0.257606,-2.6619 q 0.08587,-0.3435 0.171738,-0.6441 0.08587,-0.3005 0.429344,-0.3005 l 0.08587,0 q -0.386409,-0.2147 -0.515212,-0.4723 -0.08587,-0.3005 -0.128804,-0.7299 l 0,-2.5331 0.601082,-0.644 q 0.08587,-0.043 0.214672,-0.043 0.128803,0 0.214672,-0.043 l 1.330966,0.043 q 0.343476,0 0.472279,0.1717 0.128803,0.1288 0.343475,0.2576 0.343475,-0.3864 1.030425,-0.3864 l 1.159229,-0.1717 q 0.38641,0 0.686951,0.3434 0.30054,0.3006 0.30054,0.7299 0,0.1717 -0.04293,0.2576 l 0.128803,2.1038 q -0.04293,0.3864 -0.257606,0.687 -0.214672,0.3005 -0.515213,0.3005 0.343475,0.086 0.558147,0.3435 0.214672,0.2576 0.429344,0.6869 l -0.343475,2.4902 q 0.04293,0.086 0.04293,0.2147 0,0.5581 -0.601081,0.6869 0.214672,0.1718 0.386409,0.4723 0.214672,0.2576 0.257607,0.644 l -0.04293,2.5761 q -0.08587,0.2147 -0.128803,0.3864 -0.04293,0.1288 -0.214672,0.3435 0.257607,0.2147 0.38641,0.7299 l -0.04293,0.8587 0,0.043 z"
         style="font-style:normal;font-variant:normal;font-weight:normal;font-stretch:normal;font-size:42.93439865px;line-height:125%;font-family:'Zekton Dots';-inkscape-font-specification:'Zekton Dots, Normal';text-align:start;writing-mode:lr-tb;text-anchor:start"
         id="path13256"
         inkscape:connector-curvature="0" />
      <path
         d="m 76.146581,1190.3765 0.343475,0.3435 q 0.128803,-0.2147 0.257606,-0.2576 0.171738,-0.043 0.343475,-0.1718 l -0.601081,-0.4293 q -0.08587,0.2147 -0.257607,0.3005 -0.171737,0.043 -0.386409,0.1288 l 0.300541,0.086 z m 1.159228,-8.7157 q 0.171738,0.043 0.472279,0.043 l 0.729884,0 0.729885,0.2577 0.343475,0.6869 -0.128803,2.2755 q 0,0.3435 -0.300541,0.5582 -0.257606,0.2146 -0.644016,0.3005 l -0.772819,0 q -0.343475,0 -0.515213,0.043 -0.214672,-0.086 -0.386409,-0.1718 -0.171738,-0.086 -0.429344,-0.3435 -0.343475,0.3435 -0.515213,0.3435 -0.08587,0 -0.171737,-0.043 l -1.373901,0.2576 q -0.472279,-0.043 -0.815754,-0.3435 -0.300541,-0.3435 -0.300541,-0.7728 l 0,-2.1038 q 0,-0.3435 0.300541,-0.6011 0.300541,-0.3005 0.772819,-0.3864 l 1.245098,-0.086 q 0.257606,0.086 0.515213,0.2147 0.257606,0.1288 0.472278,0.4294 0.257606,-0.5582 0.68695,-0.5582 l 0.08587,0 0,0 z m -18.633529,4.0788 q -0.08587,0 -0.214672,0 -0.128803,-0.043 -0.214672,-0.043 -0.08587,0 -0.171737,0.043 -0.08587,0 -0.08587,0.086 0,0 0,0 0.04293,0 0.04293,0.043 -0.472278,-0.043 -0.901622,-0.043 -0.429344,-0.043 -0.772819,-0.043 -0.214672,0 -0.429344,0 -0.214672,0 -0.429344,0.043 l -0.04293,0 q -0.343475,0 -0.601081,-0.3865 -0.257607,-0.3864 -0.300541,-0.8586 l 0.04293,-1.8892 q 0.08587,-0.3434 0.300541,-0.601 0.257607,-0.2576 0.686951,-0.2576 l 0.472278,0 q 0.429344,0 0.858688,-0.086 0.429344,-0.086 0.944557,-0.086 0.08587,0.043 0.214672,0.043 0.128803,0 0.214672,0.043 0.04293,0 0.08587,0 0.04293,-0.043 0.128804,-0.043 0.08587,0 0.08587,0.043 0.04293,0 0.128804,0 l 2.189654,-0.086 q 0.429344,0.086 0.68695,0.3435 0.300541,0.2147 0.300541,0.5581 0,0.043 -0.04293,0.086 0,0.043 0,0.086 l 0.128803,0.8157 q -0.257606,0.2147 -0.343475,0.5582 -0.08587,0.3434 -0.214672,0.6869 -0.08587,0.3006 -0.257607,0.5582 -0.128803,0.2146 -0.515212,0.2146 l -0.128804,0 -1.846179,0.1718 z m -2.790736,-4.594 q -0.08587,-0.4723 -0.386409,-0.7728 -0.257607,-0.3006 -0.429344,-0.5152 0.171737,-0.3864 0.386409,-0.8158 0.257607,-0.4293 0.558148,-0.7728 0.343475,-0.3864 0.729884,-0.644 0.38641,-0.2576 0.901623,-0.2576 0.128803,0 0.343475,0.043 0.214672,0.043 0.343475,0.086 l 2.490195,-0.086 0.472279,0.1288 q 0.08587,-0.043 0.257606,-0.043 0.128803,0 0.214672,0.043 l 2.103785,-0.1288 q 0.128804,0 0.257607,0.086 0.128803,0.043 0.214672,0.086 0.08587,-0.086 0.300541,-0.086 0.214672,0 0.343475,0.043 l 1.674441,-0.086 q 0.38641,0 0.729885,0.2147 0.04293,-0.1717 0.38641,-0.1717 l 1.932048,-0.1288 q 0.214672,0.043 0.343475,0.1288 0.171737,0.086 0.343475,0.1717 0.128803,-0.043 0.257606,-0.086 0.128804,-0.043 0.601082,-0.1717 l 1.416835,0 q 0.38641,0.043 0.729885,0.3864 0.300541,-0.3005 0.601082,-0.3005 0.08587,0 0.08587,0.043 0.04293,0 0.128804,0 l 1.416835,-0.043 q 0.429344,0.086 0.68695,0.2146 0.257606,0.1289 0.300541,0.5153 0.343475,-0.1718 0.772819,-0.2576 0.429344,-0.1288 0.772819,-0.1288 0.38641,0.2146 0.858688,0.9016 0.515213,0.6869 0.515213,1.2021 0,0.6011 -0.38641,0.9875 -0.343475,0.3435 -1.07336,0.3435 -0.472278,0 -0.944556,-0.1288 -0.429344,-0.1717 -0.77282,-0.3864 -0.257606,0.3435 -0.68695,0.3435 l -1.416835,0.086 q -0.214672,-0.086 -0.429344,-0.1288 -0.171738,-0.043 -0.38641,-0.2146 -0.214672,0.2146 -0.386409,0.2576 -0.171738,0.043 -0.515213,0.1288 l -1.373901,0 q -0.214672,0 -0.386409,-0.086 -0.128804,-0.086 -0.343476,-0.1717 -0.128803,0.086 -0.386409,0.1288 -0.214672,0.043 -0.558147,0.1717 l -1.45977,-0.086 q -0.343475,-0.043 -0.644016,-0.2146 -0.128803,0.1288 -0.300541,0.1717 -0.128803,0.043 -0.214672,0.043 l -1.974982,0.043 q -0.214672,-0.086 -0.343475,-0.086 -0.08587,-0.043 -0.171738,-0.1288 -0.171737,0.1288 -0.343475,0.1717 -0.128803,0 -0.472278,0.043 l -1.760311,-0.043 q -0.171737,0 -0.515212,-0.086 -0.300541,0 -0.38641,0.2146 l -2.189654,-0.1288 q -0.08587,0 -0.214672,0 -0.128804,-0.043 -0.214672,-0.043 -0.257607,0 -0.429344,0.1717 l -0.257607,0 q -0.214672,0 -0.429344,0.043 -0.214672,0 -0.429344,0 -0.30054,0 -0.815753,-0.1288 l -0.04293,-0.086 z m 23.699788,19.5781 q 0,0.086 -0.04293,0.2147 -0.04293,0.086 -0.04293,0.2146 0,0.1288 0.128803,0.3864 -0.38641,0.1288 -0.686951,0.3864 -0.30054,0.2577 -0.601081,0.5153 -0.300541,0.2576 -0.601082,0.4293 -0.257606,0.2147 -0.601081,0.2147 -0.300541,0 -0.429344,-0.043 -0.08587,0.2147 -0.343476,0.4723 -0.214671,0.3006 -0.68695,0.3006 l -1.459769,0.1717 q -0.558148,-0.1288 -0.815754,-0.3864 l -0.343475,0.2576 -1.932048,0.086 -0.729885,-0.3006 -0.729885,0.4294 -1.674441,-0.1288 -0.601082,-0.2147 q -0.171737,0.1288 -0.343475,0.2147 -0.128803,0.086 -0.300541,0.1717 l -1.803245,-0.1288 -0.601081,-0.1717 -0.472279,0.1717 -2.146719,0 -0.472279,-0.086 -2.447261,0.086 q -0.472278,0 -0.815753,-0.2576 -0.343475,-0.2147 -0.343475,-0.6011 -0.08587,0.086 -0.214672,0.086 -0.08587,0.043 -0.38641,0.086 -0.815753,-0.3435 -1.631507,-1.2451 -0.772819,-0.8587 -0.772819,-2.3185 0,-0.3005 0.257606,-0.5582 l -0.257606,-0.3864 q -0.04293,-0.086 -0.04293,-0.1288 0,-0.086 0,-0.086 0,0 -0.04293,0.043 0,0 0,0.043 -0.04293,-0.5152 -0.128803,-1.0733 -0.08587,-0.5582 -0.08587,-1.0734 0,-0.6011 0.171738,-0.9445 l 0,-0.043 q 0,-0.2146 0.128803,-0.4293 0.171737,-0.2147 0.300541,-0.3864 -0.08587,-0.2147 -0.214672,-0.3435 -0.128804,-0.1717 -0.128804,-0.3864 l -0.04293,-2.5331 q 0,-0.9446 0.815754,-1.1163 l -0.08587,-0.043 -0.644016,-0.6011 -0.04293,-2.7478 q 0.08587,-0.2146 0.257607,-0.5152 0.171737,-0.3434 0.429344,-0.3434 0.04293,0 0.214672,0.086 0.343475,-0.1717 0.901622,-0.1717 0.214672,0 0.429344,0.043 0.257607,0 0.472278,0 0.171738,0 0.515213,-0.086 0.08587,0.043 0.214672,0.043 0.128803,0 0.214672,0.043 0.08587,-0.043 0.214672,-0.043 0.128803,-0.043 0.343475,-0.1717 l 1.631508,0.2146 q 0.472278,0 0.729884,0.3006 0.300541,0.3005 0.300541,0.6869 l 0,0.1288 q 0.08587,0.3435 0.08587,0.5582 0,0.3434 -0.08587,0.6869 -0.04293,0.3435 -0.04293,0.8158 l 0,0.1288 q 0,0.7299 -0.729885,1.0304 l 0.128803,0 q 0.343475,0 0.515213,0.3005 0.214672,0.3006 0.38641,0.5153 l -0.257607,2.6189 q 0,0.3865 -0.257606,0.6011 -0.214672,0.2147 -0.515213,0.5152 0.68695,0.4294 0.815754,0.9446 0.128803,0.5152 0.343475,0.9446 l 0,0.3864 0.300541,-0.2576 q 0.214672,0.086 0.429344,0.1288 0.214672,0 0.429344,0 l 0.729884,-0.043 q 0.128803,0.086 0.257607,0.1288 0.171737,0 0.30054,0.086 l 0.601082,-0.1288 1.932048,0 q 0.171738,0 0.515213,0.1717 0.08587,-0.1288 0.300541,-0.1717 0.214672,-0.043 0.30054,-0.1288 l 1.717376,0.086 q 0.08587,0.043 0.214672,0.043 0.128803,0 0.558147,0.2147 0.08587,-0.1288 0.300541,-0.1718 0.214672,-0.043 0.429344,-0.086 l 0.644016,0 q 0.128803,0 0.257607,0 0.128803,-0.043 0.343475,-0.086 0.04293,0 0.171737,0 0.171738,0 0.644016,0.086 0,-0.086 -0.04293,-0.1718 0,-0.086 0,-0.1717 0,-0.2576 0.04293,-0.4294 0.04293,-0.2146 0.04293,-0.4722 l 0,-0.1718 q 0,-0.644 0.515213,-0.9445 -0.558148,-0.3006 -0.601082,-1.1593 l -0.04293,-2.3613 q 0.04293,-0.3435 0.257606,-0.5582 0.214672,-0.2576 0.558147,-0.3435 -0.257606,-0.1288 -0.429344,-0.3864 -0.171737,-0.3005 -0.257606,-0.6869 -0.08587,-0.3864 -0.128803,-0.7729 -0.04293,-0.4293 -0.04293,-0.7728 0,-0.3864 0.128803,-0.644 l 0,-0.1288 q 0,-0.3864 0.257607,-0.6869 0.300541,-0.3435 0.601081,-0.3435 l 1.588573,0.043 q 0.214672,0.043 0.38641,0.1718 0.214672,0.1288 0.30054,0.2576 0.214672,-0.086 0.429344,-0.2147 0.257607,-0.1717 0.472279,-0.2147 l 1.159229,0 q 1.116294,0.086 1.116294,1.0304 l 0,0.086 q -0.04293,0.1718 -0.04293,0.5152 0,0.3864 0.04293,0.687 0.04293,0.3005 0.04293,0.644 l 0,0.3005 q 0,0.086 0,0.1288 0.04293,0 0.04293,0.086 0,0.3864 -0.343475,0.6011 -0.300541,0.1717 -0.644016,0.3864 0.515212,0.043 0.644016,0.2576 0.171737,0.1717 0.171737,0.5152 l 0.171738,2.619 -0.171738,0.644 q -0.128803,0.086 -0.343475,0.3864 0.429344,0.1718 0.429344,0.5582 0,0.1717 -0.128803,0.4723 0.171737,0.3434 0.214672,0.644 0.04293,0.2576 0.04293,0.6011 0,0.5152 -0.128803,1.0733 -0.08587,0.5152 -0.257606,0.9875 0.171737,0.1288 0.214672,0.3006 0.04293,0.1717 0.08587,0.4293 l 0,0.8587 0,0 z"
         style="font-style:normal;font-variant:normal;font-weight:normal;font-stretch:normal;font-size:42.93439865px;line-height:125%;font-family:'Zekton Dots';-inkscape-font-specification:'Zekton Dots, Normal';text-align:start;writing-mode:lr-tb;text-anchor:start"
         id="path13258"
         inkscape:connector-curvature="0" />
      <path
         d="m 86.190554,1165.9468 0,-0.043 q 0,-0.3435 0.257606,-0.687 0.257607,-0.3864 0.558148,-0.3864 l 0.04293,0 1.76031,0.086 1.288032,-0.1717 q 0.300541,0 0.601082,0.043 0.300541,0 0.644016,0.086 l 0.729885,0.1717 q 0.171737,-0.1288 0.386409,-0.1288 0.343475,0 0.644016,0.2147 0.300541,0.2146 0.300541,0.644 l 0.128803,0.4723 q 0,0.4293 -0.343475,0.8587 -0.343475,0.4293 -0.68695,0.4293 l -0.171738,0 -0.515213,-0.086 -0.558147,0 q -0.343475,0 -0.729885,0.086 -0.343475,0.043 -0.68695,0.043 -0.171738,0 -0.300541,0 -0.128803,-0.043 -0.300541,-0.086 l -0.429344,-0.043 -1.588572,0.086 q -0.515213,-0.043 -0.815754,-0.3435 -0.257606,-0.3435 -0.343475,-0.7728 l 0.128803,-0.4723 z m -0.171738,3.8641 q 0.08587,-0.5581 0.343476,-0.8157 0.257606,-0.3006 0.601081,-0.3006 l 0.08587,0 1.76031,0.086 0.772819,-0.086 q 0.300541,0 0.601082,0.086 0.300541,0.043 0.644016,0.043 0.171738,0 0.515213,-0.086 l 0.472278,0.2146 q 0.171738,-0.043 0.429344,-0.043 0.772819,0 1.159229,0.7299 0,0.2147 -0.04293,0.3864 0,0.1717 0,0.3435 0,0.1717 0.08587,0.4293 0,0.5152 -0.429344,0.7728 -0.386409,0.2576 -0.858688,0.2576 l -0.214672,0 q -0.128803,0.1718 -0.30054,0.2147 -0.128804,0 -0.343476,0.2147 l -2.060851,-0.2147 q -0.08587,0 -0.214672,0 -0.128803,-0.043 -0.214672,-0.043 l -0.429344,0 -1.502704,0.043 q -0.343475,0 -0.558147,-0.2576 -0.214672,-0.3005 -0.214672,-0.7299 l 0,-0.086 -0.08587,-1.1592 z m 0.171738,4.2076 q -0.04293,-0.086 -0.04293,-0.2576 0,-0.3864 0.343475,-0.5582 0.343475,-0.2146 0.644016,-0.3005 l 1.245097,0.086 q 0.08587,0.043 0.214672,0.043 0.128804,0 0.214672,0.043 0.08587,-0.043 0.214672,-0.043 0.171738,-0.043 0.429344,-0.1717 l 1.889114,0.1717 q 0.08587,0 0.214672,0.043 0.128803,0 0.257606,0 0.171738,0 0.257607,-0.043 0.257606,0.086 0.729884,0.2576 0.472279,0.1717 0.472279,0.7728 l 0,0.043 q 0.128803,0.3005 0.128803,0.644 0.04293,0.3435 0.08587,0.7299 0,0.601 -0.644016,0.8157 -0.644016,0.2147 -1.202163,0.2147 l -4.379309,0 q -0.644016,0 -0.901622,-0.2576 -0.257607,-0.3006 -0.343476,-0.7728 l 0.171738,-1.4598 z m -0.257606,8.6727 q 0,-0.3434 0.386409,-0.644 0.38641,-0.3005 0.729885,-0.5152 l 5.3668,0.2576 q 0.429344,0 0.601081,0.3006 0.171738,0.2576 0.214672,0.6869 0.08587,0.3864 0.128804,0.9016 0.08587,0.5152 0.30054,0.9875 -0.08587,0.3864 -0.558147,0.6011 -0.472278,0.2147 -0.944557,0.2147 l -0.128803,0 q -0.171737,0.1717 -0.386409,0.1717 -0.04293,0 -0.300541,-0.086 l -2.103786,0.1718 q -0.08587,0 -0.214672,0 -0.128803,-0.043 -0.214672,-0.043 l -0.429344,0 q -0.214672,0.043 -0.429344,0.086 -0.171737,0 -0.386409,0 -1.245098,0 -1.502704,-1.2451 l -0.128803,-1.8462 z m -1.889114,-4.4222 q -0.04293,-0.086 -0.04293,-0.2147 0,-0.3005 0.257606,-0.5152 0.257606,-0.2147 0.601082,-0.2147 l 0.558147,0 q 0.08587,0.043 0.171737,0.043 0.08587,0 0.171738,0.043 0.128803,-0.043 0.343475,-0.043 l 6.397226,-0.086 q 0.343475,0.043 1.803244,0.086 l 0.08587,0 q 0.128803,0 0.257607,0.086 0.128803,0.043 0.257606,0.043 0.257606,-0.1718 0.515213,-0.1718 0.171737,0.043 0.515212,0.043 0.257607,0 0.515213,0 0.300541,-0.043 0.601082,-0.043 0.472278,0.086 0.68695,0.3864 0.257607,0.2577 0.429344,0.687 l -0.04293,1.8032 q -0.214672,0.8158 -1.159229,0.9446 l -2.404326,-0.043 q -0.04293,0 -0.04293,0 0,-0.043 0,-0.043 l -8.372207,0.086 q -0.08587,0 -0.214672,0 -0.08587,-0.043 -0.171738,-0.043 -0.08587,0 -0.171738,0.043 -0.08587,0 -0.171737,0 l -0.429344,0 q -0.558147,0 -0.772819,-0.3435 -0.171738,-0.3434 -0.214672,-0.7728 l 0.04293,-1.7603 z m 7.298848,7.6853 q 0.171737,0.086 0.343475,0.1288 0.171738,0 0.343475,0.1717 0.257607,-0.086 0.38641,-0.086 0.343475,0 0.601081,0.1718 0.257607,0.1717 0.257607,0.3864 l 0,0.043 0.171737,2.7049 -1.889113,0.8587 q 1.974982,0.601 1.974982,0.8587 -0.257606,0.8586 -0.257606,1.5027 0,0.5581 0.214672,1.1162 -0.04293,0.5153 -0.343475,0.7299 -0.257607,0.1718 -0.686951,0.1718 -0.300541,0 -0.472278,-0.043 l -0.08587,0.086 0.300541,0 q 0.257606,0 0.68695,0.2147 0.429344,0.2146 0.644016,0.644 -0.128803,0.3864 -0.128803,0.7728 0,0.3435 0.04293,0.644 0.04293,0.3006 0.04293,0.644 0,0.4294 -0.04293,0.6441 l 0,0.086 q 0,0.4723 -0.515212,0.7728 0.343475,0.3435 0.472278,0.5582 0.171738,0.2147 0.214672,0.3864 0.08587,0.1717 0.04293,0.3435 0,0.1717 0,0.4723 0,1.0733 -0.343475,2.0608 l 0,0.1288 q 0,0.3435 -0.343475,0.4723 -0.300541,0.1717 -0.644016,0.1717 -0.257606,0 -0.343475,-0.043 -0.128803,0.1717 -0.343475,0.2147 -0.171738,0.043 -0.300541,0.2576 -0.686951,-0.1718 -1.116295,-0.1288 -0.386409,0.043 -0.987491,-0.043 l -0.901622,0.043 q -0.300541,-0.043 -0.68695,-0.086 -0.343476,0 -0.686951,-0.086 -0.300541,-0.043 -0.515213,-0.2146 -0.214672,-0.1288 -0.214672,-0.3864 0,-0.1289 0.128804,-0.3435 l -0.300541,-3.0484 q 0,-0.3864 0.343475,-0.7299 -0.300541,-0.3005 -0.300541,-0.6869 0,-0.086 0,-0.1288 0.04293,-0.086 0.04293,-0.1717 l -0.128804,-2.4902 q 0.08587,-0.3006 0.214672,-0.5582 0.128804,-0.3005 0.343476,-0.3864 -0.429344,-0.3005 -0.429344,-0.7728 0,-0.086 0,-0.086 0.04293,-0.043 0.04293,-0.1288 l 0,-2.576 q 0,-0.7729 0.558147,-0.8587 -0.171737,-0.1288 -0.472278,-0.3435 -0.257607,-0.2576 -0.429344,-0.7299 l 0.214672,-2.1467 q 0,-0.4294 0.257606,-0.7728 0.300541,-0.3864 0.772819,-0.3864 l 1.288032,0 q 0.08587,0.043 0.214672,0.043 0.128804,0 0.214672,0.043 0.04293,0 0.08587,0 0.04293,-0.043 0.08587,-0.043 0.128803,0 0.214672,0.1288 l 2.14672,-0.1717 z"
         style="font-style:normal;font-variant:normal;font-weight:normal;font-stretch:normal;font-size:42.93439865px;line-height:125%;font-family:'Zekton Dots';-inkscape-font-specification:'Zekton Dots, Normal';text-align:start;writing-mode:lr-tb;text-anchor:start"
         id="path13260"
         inkscape:connector-curvature="0" />
      <path
         d="m 115.39198,1167.4495 q -0.30054,0 -0.34347,0.1288 l -2.31846,-0.043 q -0.38641,-0.043 -0.72989,-0.3005 -0.34347,-0.2577 -0.34347,-0.7299 l 0,-0.6011 q 0.34347,-0.2147 0.60108,-0.5152 0.30054,-0.3435 0.77282,-0.5582 0.38641,0.086 0.77282,0.1718 0.38641,0.086 0.81575,0.086 0.1288,0 0.21467,0 0.12881,-0.043 0.25761,-0.043 l 0.47228,0.2147 0.55815,-0.043 q 0.47227,0.1288 0.77281,0.4723 0.34348,0.3435 0.34348,0.7299 0,0.3435 -0.25761,0.644 -0.21467,0.3006 -0.68695,0.3864 l -0.90162,0 z m -0.0859,6.569 0,-0.1717 q 0,-0.3865 0.30054,-0.6011 0.30054,-0.2576 0.64402,-0.3006 l 1.67444,0 q 0.90162,0.043 1.11629,0 l 0.34348,0 q 0.64402,0 1.5027,0.1288 l 0.0859,0 q 0.47228,0 0.68695,0.3435 0.25761,0.3006 0.42935,0.8158 l -0.12881,1.4597 q 0,0.3864 -0.34347,0.644 -0.34348,0.2147 -0.68695,0.3006 l -0.34348,0 q -0.2576,0 -1.07336,-0.043 -0.81575,-0.043 -1.11629,-0.1288 l -1.63151,0.043 q -0.38641,0 -0.55815,-0.043 -0.17173,0.086 -0.2576,0.086 -0.30054,0 -0.47228,-0.3005 -0.17174,-0.3435 -0.25761,-0.6011 l 0.0859,-1.6315 z m -0.21467,4.3793 q 0.0429,-0.4723 0.30054,-0.7299 0.30054,-0.3005 0.77282,-0.3005 l 0.17174,0 2.36139,-0.3006 q 0.68695,0.1288 1.20216,0.1718 0.55815,0 0.94456,0.086 0.38641,0.086 0.68695,0.3435 0.30054,0.2147 0.51521,0.7728 l -0.0859,1.8033 q 0,0.3435 -0.21467,0.6011 -0.21467,0.2576 -0.47228,0.2576 -0.0859,0 -0.2576,-0.086 -0.38641,0.1717 -2.10379,0.086 -0.17174,0 -1.63151,0 -0.2576,0 -0.55814,0.043 -0.25761,0 -0.51522,0 l -0.0429,0 q -0.34348,0 -0.68695,-0.3005 -0.30054,-0.3006 -0.30054,-0.7729 l 0,-0.1288 -0.0859,-1.5456 z m 0.25761,4.2076 q -0.0429,-0.086 -0.0429,-0.2576 0,-0.3006 0.25761,-0.4723 0.2576,-0.1718 0.64401,-0.2576 l 2.83367,-0.086 q 0.12881,0.086 0.34348,0.1288 0.21467,0 0.47228,0 l 1.15923,0 q 0.34347,0 0.60108,0.2576 0.2576,0.2576 0.2576,0.6011 0,0.2147 -0.0429,0.3005 l 0,1.975 q 0,0.3435 -0.25761,0.6011 -0.2576,0.2147 -2.27552,0.3435 -2.66193,0.043 -3.26301,0.043 -0.30054,0 -0.51522,-0.3435 -0.21467,-0.3434 -0.21467,-0.8157 l 0,-0.086 0.0429,-1.932 z m 6.61189,-11.5064 0,0.043 q 0,0.3005 -0.30054,0.644 -0.30054,0.3435 -0.72988,0.4723 -0.81576,-0.1718 -1.33097,-0.1718 -0.51521,0 -1.20216,-0.1717 l -0.25761,0.086 -5.28093,-0.086 q -0.0859,0 -0.1288,0.043 -0.0429,0 -0.0859,0 -0.34348,0 -0.64402,-0.3005 -0.2576,-0.3005 -0.2576,-0.5581 l 0,-1.4169 q 0,-0.4723 0.34347,-0.7299 0.34348,-0.2576 0.85869,-0.4293 6.22549,0.1288 6.56896,0.086 0.34348,-0.043 0.68695,-0.043 l 0.68695,0 q 0.47228,0.086 0.72989,0.4294 0.2576,0.3434 0.42934,0.7728 l -0.0859,1.331 z m -2.70486,14.8123 q 2.01791,-0.086 2.31845,0.2576 0.34348,0.3006 0.34348,0.7728 0,0.086 -0.0429,0.1288 0,0.043 0,0.1289 l 0.0859,1.932 q 0,0.3435 -0.21467,0.6869 -0.17174,0.3006 -0.68695,0.4723 0.34348,0.1288 0.60108,0.3864 0.30054,0.2576 0.47228,0.8158 l -0.1288,2.1896 q -0.0859,0.3435 -0.21467,0.6441 -0.12881,0.3005 -0.34348,0.3864 0.21467,0.086 0.38641,0.3434 0.21467,0.2577 0.42934,0.4723 l -0.30054,2.8337 q -0.0859,0.2147 -0.17173,0.4293 -0.0429,0.1718 -0.17174,0.3864 0.17174,0.1289 0.42934,1.0305 l 0.0429,2.7048 q -0.0429,0.4723 -0.30054,0.7299 -0.25761,0.3006 -0.51522,0.3006 -0.1288,0 -0.17173,-0.043 -4.33638,-0.043 -4.93746,-0.043 l -0.1288,0 q -0.30054,0 -0.60109,-0.2576 -0.30054,-0.2576 -0.51521,-0.7299 l 0.30054,-3.0483 q 0.0859,-0.1718 0.12881,-0.3435 0.0859,-0.2147 0.21467,-0.4294 -0.17174,0 -0.30054,-0.5152 l 0.0429,-2.8336 q -0.0429,-0.086 -0.0429,-0.2576 0,-0.2577 0.17173,-0.4294 0.17174,-0.1717 0.25761,-0.2147 -0.21467,-0.3005 -0.34347,-0.5152 -0.0859,-0.2146 -0.12881,-0.5581 l 0.0859,-2.4902 q 0,-0.7299 0.60108,-0.9446 -0.21467,-0.043 -0.42934,-0.3434 -0.17174,-0.3006 -0.17174,-0.6441 l -0.0859,-2.3184 q 0.0429,-0.3435 0.25761,-0.6011 0.25761,-0.3005 0.51521,-0.3005 0.12881,0 0.17174,0.043 0.64402,-0.086 3.09128,-0.2147 z"
         style="font-style:normal;font-variant:normal;font-weight:normal;font-stretch:normal;font-size:42.93439865px;line-height:125%;font-family:'Zekton Dots';-inkscape-font-specification:'Zekton Dots, Normal';text-align:start;writing-mode:lr-tb;text-anchor:start"
         id="path13262"
         inkscape:connector-curvature="0" />
      <path
         d="m 133.5264,1195.6574 q 0.38641,0.086 0.64401,0.3435 0.25761,0.2576 0.25761,0.644 l -0.0429,6.3972 q 0,0.3435 -0.30055,0.5582 -0.30054,0.2576 -0.77281,0.2576 l -5.28094,0.2147 q -0.42934,-0.086 -0.68695,-0.3864 -0.2576,-0.3006 -0.2576,-0.9446 l 0,-2.8766 q 0,-0.3435 -0.0429,-3.3059 0,-0.3006 0.38641,-0.6011 0.42935,-0.3006 0.72989,-0.3006 l 3.04834,-0.1288 2.31846,0.1288 z"
         style="font-style:normal;font-variant:normal;font-weight:normal;font-stretch:normal;font-size:42.93439865px;line-height:125%;font-family:'Zekton Dots';-inkscape-font-specification:'Zekton Dots, Normal';text-align:start;writing-mode:lr-tb;text-anchor:start"
         id="path13264"
         inkscape:connector-curvature="0" />
      <path
         d="m 139.71029,1167.4495 q -0.30054,0 -0.34347,0.1288 l -2.31846,-0.043 q -0.38641,-0.043 -0.72988,-0.3005 -0.34348,-0.2577 -0.34348,-0.7299 l 0,-0.6011 q 0.34348,-0.2147 0.60108,-0.5152 0.30054,-0.3435 0.77282,-0.5582 0.38641,0.086 0.77282,0.1718 0.38641,0.086 0.81575,0.086 0.12881,0 0.21468,0 0.1288,-0.043 0.2576,-0.043 l 0.47228,0.2147 0.55815,-0.043 q 0.47228,0.1288 0.77282,0.4723 0.34347,0.3435 0.34347,0.7299 0,0.3435 -0.2576,0.644 -0.21468,0.3006 -0.68695,0.3864 l -0.90163,0 z m -0.0859,6.569 0,-0.1717 q 0,-0.3865 0.30054,-0.6011 0.30054,-0.2576 0.64401,-0.3006 l 1.67444,0 q 0.90163,0.043 1.1163,0 l 0.34347,0 q 0.64402,0 1.50271,0.1288 l 0.0859,0 q 0.47227,0 0.68695,0.3435 0.2576,0.3006 0.42934,0.8158 l -0.1288,1.4597 q 0,0.3864 -0.34348,0.644 -0.34347,0.2147 -0.68695,0.3006 l -0.34347,0 q -0.25761,0 -1.07336,-0.043 -0.81576,-0.043 -1.1163,-0.1288 l -1.63151,0.043 q -0.3864,0 -0.55814,-0.043 -0.17174,0.086 -0.25761,0.086 -0.30054,0 -0.47228,-0.3005 -0.17173,-0.3435 -0.2576,-0.6011 l 0.0859,-1.6315 z m -0.21468,4.3793 q 0.0429,-0.4723 0.30054,-0.7299 0.30054,-0.3005 0.77282,-0.3005 l 0.17174,0 2.36139,-0.3006 q 0.68695,0.1288 1.20217,0.1718 0.55814,0 0.94455,0.086 0.38641,0.086 0.68695,0.3435 0.30054,0.2147 0.51522,0.7728 l -0.0859,1.8033 q 0,0.3435 -0.21468,0.6011 -0.21467,0.2576 -0.47227,0.2576 -0.0859,0 -0.25761,-0.086 -0.38641,0.1717 -2.10379,0.086 -0.17173,0 -1.6315,0 -0.25761,0 -0.55815,0.043 -0.25761,0 -0.51521,0 l -0.0429,0 q -0.34347,0 -0.68695,-0.3005 -0.30054,-0.3006 -0.30054,-0.7729 l 0,-0.1288 -0.0859,-1.5456 z m 0.25761,4.2076 q -0.0429,-0.086 -0.0429,-0.2576 0,-0.3006 0.2576,-0.4723 0.25761,-0.1718 0.64402,-0.2576 l 2.83367,-0.086 q 0.1288,0.086 0.34347,0.1288 0.21467,0 0.47228,0 l 1.15923,0 q 0.34348,0 0.60108,0.2576 0.25761,0.2576 0.25761,0.6011 0,0.2147 -0.0429,0.3005 l 0,1.975 q 0,0.3435 -0.2576,0.6011 -0.25761,0.2147 -2.27553,0.3435 -2.66193,0.043 -3.26301,0.043 -0.30054,0 -0.51521,-0.3435 -0.21467,-0.3434 -0.21467,-0.8157 l 0,-0.086 0.0429,-1.932 z m 6.6119,-11.5064 0,0.043 q 0,0.3005 -0.30054,0.644 -0.30054,0.3435 -0.72989,0.4723 -0.81575,-0.1718 -1.33097,-0.1718 -0.51521,0 -1.20216,-0.1717 l -0.2576,0.086 -5.28094,-0.086 q -0.0859,0 -0.1288,0.043 -0.0429,0 -0.0859,0 -0.34347,0 -0.64401,-0.3005 -0.25761,-0.3005 -0.25761,-0.5581 l 0,-1.4169 q 0,-0.4723 0.34348,-0.7299 0.34347,-0.2576 0.85868,-0.4293 6.22549,0.1288 6.56897,0.086 0.34347,-0.043 0.68695,-0.043 l 0.68695,0 q 0.47228,0.086 0.72988,0.4294 0.25761,0.3434 0.42935,0.7728 l -0.0859,1.331 z m -2.70487,14.8123 q 2.01792,-0.086 2.31846,0.2576 0.34347,0.3006 0.34347,0.7728 0,0.086 -0.0429,0.1288 0,0.043 0,0.1289 l 0.0859,1.932 q 0,0.3435 -0.21468,0.6869 -0.17173,0.3006 -0.68695,0.4723 0.34348,0.1288 0.60109,0.3864 0.30054,0.2576 0.47227,0.8158 l -0.1288,2.1896 q -0.0859,0.3435 -0.21467,0.6441 -0.1288,0.3005 -0.34348,0.3864 0.21468,0.086 0.38641,0.3434 0.21468,0.2577 0.42935,0.4723 l -0.30054,2.8337 q -0.0859,0.2147 -0.17174,0.4293 -0.0429,0.1718 -0.17174,0.3864 0.17174,0.1289 0.42935,1.0305 l 0.0429,2.7048 q -0.0429,0.4723 -0.30054,0.7299 -0.25761,0.3006 -0.51521,0.3006 -0.12881,0 -0.17174,-0.043 -4.33638,-0.043 -4.93746,-0.043 l -0.1288,0 q -0.30054,0 -0.60108,-0.2576 -0.30054,-0.2576 -0.51521,-0.7299 l 0.30054,-3.0483 q 0.0859,-0.1718 0.1288,-0.3435 0.0859,-0.2147 0.21467,-0.4294 -0.17174,0 -0.30054,-0.5152 l 0.0429,-2.8336 q -0.0429,-0.086 -0.0429,-0.2576 0,-0.2577 0.17174,-0.4294 0.17174,-0.1717 0.2576,-0.2147 -0.21467,-0.3005 -0.34347,-0.5152 -0.0859,-0.2146 -0.1288,-0.5581 l 0.0859,-2.4902 q 0,-0.7299 0.60108,-0.9446 -0.21468,-0.043 -0.42935,-0.3434 -0.17173,-0.3006 -0.17173,-0.6441 l -0.0859,-2.3184 q 0.0429,-0.3435 0.2576,-0.6011 0.25761,-0.3005 0.51522,-0.3005 0.1288,0 0.17173,0.043 0.64402,-0.086 3.09128,-0.2147 z"
         style="font-style:normal;font-variant:normal;font-weight:normal;font-stretch:normal;font-size:42.93439865px;line-height:125%;font-family:'Zekton Dots';-inkscape-font-specification:'Zekton Dots, Normal';text-align:start;writing-mode:lr-tb;text-anchor:start"
         id="path13266"
         inkscape:connector-curvature="0" />
    </g>
    <circle
       transform="matrix(0.96592582,-0.25881905,0.25881905,0.96592582,0,0)"
       id="circle13268"
       style="display:inline;fill:none;stroke:#000000;stroke-width:0.35433072;stroke-linecap:round;stroke-miterlimit:4;stroke-dasharray:none"
       cx="241.82376"
       cy="410.08133"
       r="10.520909" />
    <path
       inkscape:connector-curvature="0"
       id="path14164"
       style="display:inline;fill:none;stroke:#000000;stroke-width:0.35433072;stroke-linecap:round;stroke-miterlimit:4;stroke-dasharray:none"
       d="m 430.53376,-86.292458 -0.37432,1.508343 m 1.47172,-2.913731 -1.0974,1.405388 m 2.84313,-2.612325 -1.74573,1.206937 m 4.0208,-2.132971 -2.27507,0.926034 m 4.92447,-1.508232 -2.6494,0.582198 m 5.49253,-0.78076 -2.84313,0.198562 m 5.68629,0 -2.84316,-0.198562 m 5.49253,0.78076 -2.64937,-0.582198 m 4.92446,1.508232 -2.27509,-0.926034 m 4.02081,2.132971 -1.74572,-1.206937 m 2.84314,2.612325 -1.09742,-1.405388 m 1.47172,2.913731 -0.3743,-1.508343 m 0.3743,180.215777 0,-178.707434 m -0.3743,180.215677 0.3743,-1.508243 m -1.47172,2.913708 1.09742,-1.405465 m -2.84314,2.612369 1.74572,-1.206904 m -4.02081,2.132983 2.27509,-0.926079 m -4.92446,1.508244 2.64937,-0.582165 m -5.49253,0.780726 2.84316,-0.198561 m -5.68629,0 2.84313,0.198561 m -5.49253,-0.780726 2.6494,0.582165 m -4.92447,-1.508244 2.27507,0.926079 m -4.0208,-2.132983 1.74573,1.206904 m -2.84313,-2.612369 1.0974,1.405465 m -1.47172,-2.913708 0.37432,1.508243 m -0.37432,-180.215677 0,178.707434" />
  </g>
</svg>
